{
    "asset": {
        "generator": "COLLADA2GLTF",
        "version": "2.0"
    },
    "scenes": [
        {
            "nodes": [
                0
            ]
        }
    ],
    "scene": 0,
    "nodes": [
        {
            "children": [
                1
            ],
            "name": "Y_UP"
        },
        {
            "children": [
                2
            ],
            "matrix": [
                -1.3466930348648987e-10,
                1.0,
                2.350661332251036e-12,
                0.0,
                -0.9998477101325988,
                -1.3468981485686982e-10,
                0.017452405765652658,
                0.0,
                0.017452405765652658,
                0.0,
                0.9998477101325988,
                0.0,
                72.77580261230469,
                148.26400756835938,
                -260.4280090332031,
                1.0
            ],
            "name": "Technische_Leitzentrale"
        },
        {
            "mesh": 0,
            "matrix": [
                1.3625692241170385e-10,
                0.9998477101325988,
                -0.017452405765652658,
                0.0,
                1.0,
                -1.3466930348648987e-10,
                9.214384810718456e-11,
                0.0,
                8.977951021504893e-11,
                -0.017452405765652658,
                -0.9998477101325988,
                0.0,
                -148.26400756835938,
                77.3096923828125,
                259.1180114746094,
                1.0
            ],
            "name": "Dach.1"
        }
    ],
    "meshes": [
        {
            "primitives": [
                {
                    "attributes": {
                        "NORMAL": 1,
                        "POSITION": 2
                    },
                    "indices": 0,
                    "mode": 4,
                    "material": 0
                },
                {
                    "attributes": {
                        "NORMAL": 4,
                        "POSITION": 5,
                        "TEXCOORD_0": 6
                    },
                    "indices": 3,
                    "mode": 4,
                    "material": 1
                },
                {
                    "attributes": {
                        "NORMAL": 8,
                        "POSITION": 9,
                        "TEXCOORD_0": 10
                    },
                    "indices": 7,
                    "mode": 4,
                    "material": 2
                },
                {
                    "attributes": {
                        "NORMAL": 12,
                        "POSITION": 13,
                        "TEXCOORD_0": 14
                    },
                    "indices": 11,
                    "mode": 4,
                    "material": 3
                },
                {
                    "attributes": {
                        "NORMAL": 16,
                        "POSITION": 17,
                        "TEXCOORD_0": 18
                    },
                    "indices": 15,
                    "mode": 4,
                    "material": 4
                },
                {
                    "attributes": {
                        "NORMAL": 20,
                        "POSITION": 21,
                        "TEXCOORD_0": 22
                    },
                    "indices": 19,
                    "mode": 4,
                    "material": 5
                }
            ],
            "name": "ID31"
        }
    ],
    "accessors": [
        {
            "bufferView": 0,
            "byteOffset": 0,
            "componentType": 5123,
            "count": 12,
            "max": [
                7
            ],
            "min": [
                0
            ],
            "type": "SCALAR"
        },
        {
            "bufferView": 1,
            "byteOffset": 0,
            "componentType": 5126,
            "count": 8,
            "max": [
                0.7404239773750305,
                0.6977609992027283,
                0.06563390046358109
            ],
            "min": [
                -0.714264988899231,
                0.6682659983634949,
                -0.07205670326948166
            ],
            "type": "VEC3"
        },
        {
            "bufferView": 1,
            "byteOffset": 96,
            "componentType": 5126,
            "count": 8,
            "max": [
                4.5477399826049809,
                15.059999465942385,
                14.453299522399905
            ],
            "min": [
                -4.5477399826049809,
                11.65999984741211,
                -14.453299522399905
            ],
            "type": "VEC3"
        },
        {
            "bufferView": 0,
            "byteOffset": 24,
            "componentType": 5123,
            "count": 18,
            "max": [
                5
            ],
            "min": [
                0
            ],
            "type": "SCALAR"
        },
        {
            "bufferView": 1,
            "byteOffset": 192,
            "componentType": 5126,
            "count": 6,
            "max": [
                0.09301970154047013,
                -3.291349770506713e-8,
                0.9956640005111694
            ],
            "min": [
                0.09301970154047013,
                -3.500969825154243e-8,
                0.9956640005111694
            ],
            "type": "VEC3"
        },
        {
            "bufferView": 1,
            "byteOffset": 264,
            "componentType": 5126,
            "count": 6,
            "max": [
                4.5477399826049809,
                11.65999984741211,
                14.453299522399905
            ],
            "min": [
                -1.9426701068878177,
                1.8189900405146329e-14,
                13.846899032592774
            ],
            "type": "VEC3"
        },
        {
            "bufferView": 2,
            "byteOffset": 0,
            "componentType": 5126,
            "count": 6,
            "max": [
                1.0,
                1.0
            ],
            "min": [
                0.0,
                0.0
            ],
            "type": "VEC2"
        },
        {
            "bufferView": 0,
            "byteOffset": 60,
            "componentType": 5123,
            "count": 18,
            "max": [
                5
            ],
            "min": [
                0
            ],
            "type": "SCALAR"
        },
        {
            "bufferView": 1,
            "byteOffset": 336,
            "componentType": 5126,
            "count": 6,
            "max": [
                0.9952979683876038,
                -3.246449864491297e-7,
                -0.09686049818992616
            ],
            "min": [
                0.9952979683876038,
                -3.42904002081923e-7,
                -0.09686049818992616
            ],
            "type": "VEC3"
        },
        {
            "bufferView": 1,
            "byteOffset": 408,
            "componentType": 5126,
            "count": 6,
            "max": [
                4.5477399826049809,
                11.65999984741211,
                13.846899032592774
            ],
            "min": [
                1.7936100959777833,
                1.8189900405146329e-14,
                -14.453299522399905
            ],
            "type": "VEC3"
        },
        {
            "bufferView": 2,
            "byteOffset": 48,
            "componentType": 5126,
            "count": 6,
            "max": [
                1.0,
                1.0
            ],
            "min": [
                0.0,
                0.0
            ],
            "type": "VEC2"
        },
        {
            "bufferView": 0,
            "byteOffset": 96,
            "componentType": 5123,
            "count": 18,
            "max": [
                5
            ],
            "min": [
                0
            ],
            "type": "SCALAR"
        },
        {
            "bufferView": 1,
            "byteOffset": 480,
            "componentType": 5126,
            "count": 6,
            "max": [
                -0.08746140450239182,
                3.2454398279924138e-8,
                -0.99616801738739
            ],
            "min": [
                -0.08746140450239182,
                2.5618300369956164e-8,
                -0.99616801738739
            ],
            "type": "VEC3"
        },
        {
            "bufferView": 1,
            "byteOffset": 552,
            "componentType": 5126,
            "count": 6,
            "max": [
                1.7936100959777833,
                11.65999984741211,
                -13.896499633789065
            ],
            "min": [
                -4.5477399826049809,
                7.384909963548125e-7,
                -14.453299522399905
            ],
            "type": "VEC3"
        },
        {
            "bufferView": 2,
            "byteOffset": 96,
            "componentType": 5126,
            "count": 6,
            "max": [
                1.0,
                1.0
            ],
            "min": [
                0.0,
                0.0
            ],
            "type": "VEC2"
        },
        {
            "bufferView": 0,
            "byteOffset": 132,
            "componentType": 5123,
            "count": 18,
            "max": [
                5
            ],
            "min": [
                0
            ],
            "type": "SCALAR"
        },
        {
            "bufferView": 1,
            "byteOffset": 624,
            "componentType": 5126,
            "count": 6,
            "max": [
                -0.995805025100708,
                3.308539930912957e-7,
                0.09150460362434389
            ],
            "min": [
                -0.995805025100708,
                2.988630001254933e-7,
                0.09150460362434389
            ],
            "type": "VEC3"
        },
        {
            "bufferView": 1,
            "byteOffset": 696,
            "componentType": 5126,
            "count": 6,
            "max": [
                -1.9426701068878177,
                11.65999984741211,
                14.453299522399905
            ],
            "min": [
                -4.5477399826049809,
                0.000002124169895978412,
                -13.896499633789065
            ],
            "type": "VEC3"
        },
        {
            "bufferView": 2,
            "byteOffset": 144,
            "componentType": 5126,
            "count": 6,
            "max": [
                1.0,
                1.0
            ],
            "min": [
                0.0,
                0.0
            ],
            "type": "VEC2"
        },
        {
            "bufferView": 0,
            "byteOffset": 168,
            "componentType": 5123,
            "count": 6,
            "max": [
                5
            ],
            "min": [
                0
            ],
            "type": "SCALAR"
        },
        {
            "bufferView": 1,
            "byteOffset": 768,
            "componentType": 5126,
            "count": 6,
            "max": [
                0.09301120042800904,
                0.025366200134158136,
                0.9955719709396362
            ],
            "min": [
                -0.08743320405483246,
                0.01362610049545765,
                -0.99584698677063
            ],
            "type": "VEC3"
        },
        {
            "bufferView": 1,
            "byteOffset": 840,
            "componentType": 5126,
            "count": 6,
            "max": [
                4.5477399826049809,
                15.059999465942385,
                14.453299522399905
            ],
            "min": [
                -4.5477399826049809,
                11.65999984741211,
                -14.453299522399905
            ],
            "type": "VEC3"
        },
        {
            "bufferView": 2,
            "byteOffset": 192,
            "componentType": 5126,
            "count": 6,
            "max": [
                1.0,
                1.0
            ],
            "min": [
                0.0,
                0.0
            ],
            "type": "VEC2"
        }
    ],
    "materials": [
        {
            "pbrMetallicRoughness": {
                "baseColorFactor": [
                    0.2862749993801117,
                    0.42222198843956,
                    0.6941180229187012,
                    1.0
                ],
                "metallicFactor": 0.0
            },
            "name": "ID2"
        },
        {
            "pbrMetallicRoughness": {
                "baseColorTexture": {
                    "index": 0
                },
                "metallicFactor": 0.0
            },
            "name": "ID24"
        },
        {
            "pbrMetallicRoughness": {
                "baseColorTexture": {
                    "index": 1
                },
                "metallicFactor": 0.0
            },
            "name": "ID19"
        },
        {
            "pbrMetallicRoughness": {
                "baseColorTexture": {
                    "index": 2
                },
                "metallicFactor": 0.0
            },
            "name": "ID14"
        },
        {
            "pbrMetallicRoughness": {
                "baseColorTexture": {
                    "index": 3
                },
                "metallicFactor": 0.0
            },
            "name": "ID9"
        },
        {
            "pbrMetallicRoughness": {
                "baseColorTexture": {
                    "index": 4
                },
                "metallicFactor": 0.0
            },
            "name": "ID4"
        }
    ],
    "textures": [
        {
            "sampler": 0,
            "source": 0
        },
        {
            "sampler": 0,
            "source": 1
        },
        {
            "sampler": 0,
            "source": 2
        },
        {
            "sampler": 0,
            "source": 3
        },
        {
            "sampler": 0,
            "source": 4
        }
    ],
    "images": [
        {
            "uri": "data:image/jpeg;base64,"
        },
        {
            "uri": "data:image/jpeg;base64,"
        },
        {
            "uri": "data:image/jpeg;base64,"
        },
        {
            "uri": "data:image/jpeg;base64,"
        },
        {
            "uri": "data:image/jpeg;base64,"
        }
    ],
    "samplers": [
        {
            "magFilter": 9729,
            "minFilter": 9986,
            "wrapS": 10497,
            "wrapT": 10497
        }
    ],
    "bufferViews": [
        {
            "buffer": 0,
            "byteOffset": 1152,
            "byteLength": 180,
            "target": 34963
        },
        {
            "buffer": 0,
            "byteOffset": 0,
            "byteLength": 912,
            "byteStride": 12,
            "target": 34962
        },
        {
            "buffer": 0,
            "byteOffset": 912,
            "byteLength": 240,
            "byteStride": 8,
            "target": 34962
        }
    ],
    "buffers": [
        {
            "byteLength": 1332,
            "uri": "data:application/octet-stream;base64,"
        }
    ]
}
