{
    "asset": {
        "generator": "COLLADA2GLTF",
        "version": "2.0"
    },
    "scenes": [
        {
            "nodes": [
                0
            ]
        }
    ],
    "scene": 0,
    "nodes": [
        {
            "children": [
                1
            ],
            "name": "Y_UP"
        },
        {
            "children": [
                2
            ],
            "matrix": [
                1.0,
                0.0,
                0.0,
                0.0,
                0.0,
                1.0,
                0.0,
                0.0,
                0.0,
                0.0,
                1.0,
                0.0,
                0.0,
                0.0,
                3.0885798931121828,
                1.0
            ],
            "name": "Textilmaschinenhalle"
        },
        {
            "mesh": 0,
            "matrix": [
                -1.0,
                0.0,
                -8.979318677493353e-11,
                0.0,
                0.0,
                1.0,
                0.0,
                0.0,
                8.979318677493353e-11,
                0.0,
                -1.0,
                0.0,
                5.14728014877619e-7,
                2.3949498384467917e-8,
                -3.0885798931121828,
                1.0
            ],
            "name": "Dach.1"
        }
    ],
    "meshes": [
        {
            "primitives": [
                {
                    "attributes": {
                        "NORMAL": 1,
                        "POSITION": 2
                    },
                    "indices": 0,
                    "mode": 4,
                    "material": 0
                },
                {
                    "attributes": {
                        "NORMAL": 4,
                        "POSITION": 5,
                        "TEXCOORD_0": 6
                    },
                    "indices": 3,
                    "mode": 4,
                    "material": 1
                },
                {
                    "attributes": {
                        "NORMAL": 8,
                        "POSITION": 9,
                        "TEXCOORD_0": 10
                    },
                    "indices": 7,
                    "mode": 4,
                    "material": 2
                },
                {
                    "attributes": {
                        "NORMAL": 12,
                        "POSITION": 13,
                        "TEXCOORD_0": 14
                    },
                    "indices": 11,
                    "mode": 4,
                    "material": 3
                },
                {
                    "attributes": {
                        "NORMAL": 16,
                        "POSITION": 17,
                        "TEXCOORD_0": 18
                    },
                    "indices": 15,
                    "mode": 4,
                    "material": 4
                },
                {
                    "attributes": {
                        "NORMAL": 20,
                        "POSITION": 21,
                        "TEXCOORD_0": 22
                    },
                    "indices": 19,
                    "mode": 4,
                    "material": 5
                },
                {
                    "attributes": {
                        "NORMAL": 24,
                        "POSITION": 25,
                        "TEXCOORD_0": 26
                    },
                    "indices": 23,
                    "mode": 4,
                    "material": 6
                },
                {
                    "attributes": {
                        "NORMAL": 28,
                        "POSITION": 29,
                        "TEXCOORD_0": 30
                    },
                    "indices": 27,
                    "mode": 4,
                    "material": 7
                },
                {
                    "attributes": {
                        "NORMAL": 32,
                        "POSITION": 33,
                        "TEXCOORD_0": 34
                    },
                    "indices": 31,
                    "mode": 4,
                    "material": 8
                }
            ],
            "name": "ID46"
        }
    ],
    "accessors": [
        {
            "bufferView": 0,
            "byteOffset": 0,
            "componentType": 5123,
            "count": 12,
            "max": [
                7
            ],
            "min": [
                0
            ],
            "type": "SCALAR"
        },
        {
            "bufferView": 1,
            "byteOffset": 0,
            "componentType": 5126,
            "count": 8,
            "max": [
                0.0,
                1.0,
                -0.0
            ],
            "min": [
                0.0,
                1.0,
                -0.0
            ],
            "type": "VEC3"
        },
        {
            "bufferView": 1,
            "byteOffset": 96,
            "componentType": 5126,
            "count": 8,
            "max": [
                8.187610626220704,
                6.0,
                16.338699340820314
            ],
            "min": [
                -8.187610626220704,
                4.0,
                -16.338699340820314
            ],
            "type": "VEC3"
        },
        {
            "bufferView": 0,
            "byteOffset": 24,
            "componentType": 5123,
            "count": 9,
            "max": [
                3
            ],
            "min": [
                0
            ],
            "type": "SCALAR"
        },
        {
            "bufferView": 1,
            "byteOffset": 192,
            "componentType": 5126,
            "count": 4,
            "max": [
                0.07255099713802338,
                0.0,
                0.9973649978637696
            ],
            "min": [
                0.07255099713802338,
                0.0,
                0.9973649978637696
            ],
            "type": "VEC3"
        },
        {
            "bufferView": 1,
            "byteOffset": 240,
            "componentType": 5126,
            "count": 4,
            "max": [
                8.187610626220704,
                6.0,
                16.338699340820314
            ],
            "min": [
                -2.2847201824188234,
                0.0,
                15.576899528503418
            ],
            "type": "VEC3"
        },
        {
            "bufferView": 2,
            "byteOffset": 0,
            "componentType": 5126,
            "count": 4,
            "max": [
                1.0,
                1.0
            ],
            "min": [
                0.0,
                0.0
            ],
            "type": "VEC2"
        },
        {
            "bufferView": 0,
            "byteOffset": 42,
            "componentType": 5123,
            "count": 9,
            "max": [
                3
            ],
            "min": [
                0
            ],
            "type": "SCALAR"
        },
        {
            "bufferView": 1,
            "byteOffset": 288,
            "componentType": 5126,
            "count": 4,
            "max": [
                -0.9973649978637696,
                0.0,
                0.07255180180072785
            ],
            "min": [
                -0.9973649978637696,
                0.0,
                0.07255180180072785
            ],
            "type": "VEC3"
        },
        {
            "bufferView": 1,
            "byteOffset": 336,
            "componentType": 5126,
            "count": 4,
            "max": [
                -2.2847201824188234,
                6.0,
                16.338699340820314
            ],
            "min": [
                -2.647480010986328,
                0.0,
                11.351899147033692
            ],
            "type": "VEC3"
        },
        {
            "bufferView": 2,
            "byteOffset": 32,
            "componentType": 5126,
            "count": 4,
            "max": [
                1.0,
                1.0
            ],
            "min": [
                0.0,
                0.0
            ],
            "type": "VEC2"
        },
        {
            "bufferView": 0,
            "byteOffset": 60,
            "componentType": 5123,
            "count": 9,
            "max": [
                3
            ],
            "min": [
                0
            ],
            "type": "SCALAR"
        },
        {
            "bufferView": 1,
            "byteOffset": 384,
            "componentType": 5126,
            "count": 4,
            "max": [
                -0.9973649978637696,
                0.0,
                0.07255090028047562
            ],
            "min": [
                -0.9973649978637696,
                0.0,
                0.07255090028047562
            ],
            "type": "VEC3"
        },
        {
            "bufferView": 1,
            "byteOffset": 432,
            "componentType": 5126,
            "count": 4,
            "max": [
                -2.647480010986328,
                6.0,
                11.351899147033692
            ],
            "min": [
                -4.606349945068359,
                3.6379800810292659e-14,
                -15.576899528503418
            ],
            "type": "VEC3"
        },
        {
            "bufferView": 2,
            "byteOffset": 64,
            "componentType": 5126,
            "count": 4,
            "max": [
                1.0,
                1.0
            ],
            "min": [
                0.0,
                0.0
            ],
            "type": "VEC2"
        },
        {
            "bufferView": 0,
            "byteOffset": 78,
            "componentType": 5123,
            "count": 9,
            "max": [
                3
            ],
            "min": [
                0
            ],
            "type": "SCALAR"
        },
        {
            "bufferView": 1,
            "byteOffset": 480,
            "componentType": 5126,
            "count": 4,
            "max": [
                -0.07255099713802338,
                0.0,
                -0.9973649978637696
            ],
            "min": [
                -0.07255099713802338,
                0.0,
                -0.9973649978637696
            ],
            "type": "VEC3"
        },
        {
            "bufferView": 1,
            "byteOffset": 528,
            "componentType": 5126,
            "count": 4,
            "max": [
                5.86598014831543,
                6.0,
                -15.576899528503418
            ],
            "min": [
                -4.606349945068359,
                3.6379800810292659e-14,
                -16.338699340820314
            ],
            "type": "VEC3"
        },
        {
            "bufferView": 2,
            "byteOffset": 96,
            "componentType": 5126,
            "count": 4,
            "max": [
                1.0,
                1.0
            ],
            "min": [
                0.0,
                0.0
            ],
            "type": "VEC2"
        },
        {
            "bufferView": 0,
            "byteOffset": 96,
            "componentType": 5123,
            "count": 9,
            "max": [
                3
            ],
            "min": [
                0
            ],
            "type": "SCALAR"
        },
        {
            "bufferView": 1,
            "byteOffset": 576,
            "componentType": 5126,
            "count": 4,
            "max": [
                0.9973649978637696,
                0.0,
                -0.07255110144615174
            ],
            "min": [
                0.9973649978637696,
                0.0,
                -0.07255110144615174
            ],
            "type": "VEC3"
        },
        {
            "bufferView": 1,
            "byteOffset": 624,
            "componentType": 5126,
            "count": 4,
            "max": [
                8.187610626220704,
                6.0,
                15.576899528503418
            ],
            "min": [
                5.86598014831543,
                3.6379800810292659e-14,
                -16.338699340820314
            ],
            "type": "VEC3"
        },
        {
            "bufferView": 2,
            "byteOffset": 128,
            "componentType": 5126,
            "count": 4,
            "max": [
                1.0,
                1.0
            ],
            "min": [
                0.0,
                0.0
            ],
            "type": "VEC2"
        },
        {
            "bufferView": 0,
            "byteOffset": 114,
            "componentType": 5123,
            "count": 9,
            "max": [
                3
            ],
            "min": [
                0
            ],
            "type": "SCALAR"
        },
        {
            "bufferView": 1,
            "byteOffset": 672,
            "componentType": 5126,
            "count": 4,
            "max": [
                0.07255099713802338,
                0.0,
                0.9973649978637696
            ],
            "min": [
                0.07255099713802338,
                0.0,
                0.9973649978637696
            ],
            "type": "VEC3"
        },
        {
            "bufferView": 1,
            "byteOffset": 720,
            "componentType": 5126,
            "count": 4,
            "max": [
                -2.647480010986328,
                4.0,
                11.678399085998536
            ],
            "min": [
                -7.1356201171875,
                3.6379800810292659e-14,
                11.351899147033692
            ],
            "type": "VEC3"
        },
        {
            "bufferView": 2,
            "byteOffset": 160,
            "componentType": 5126,
            "count": 4,
            "max": [
                1.0,
                1.0
            ],
            "min": [
                0.0,
                0.0
            ],
            "type": "VEC2"
        },
        {
            "bufferView": 0,
            "byteOffset": 132,
            "componentType": 5123,
            "count": 9,
            "max": [
                3
            ],
            "min": [
                0
            ],
            "type": "SCALAR"
        },
        {
            "bufferView": 1,
            "byteOffset": 768,
            "componentType": 5126,
            "count": 4,
            "max": [
                -0.9973649978637696,
                0.0,
                0.07255110144615174
            ],
            "min": [
                -0.9973649978637696,
                0.0,
                0.07255110144615174
            ],
            "type": "VEC3"
        },
        {
            "bufferView": 1,
            "byteOffset": 816,
            "componentType": 5126,
            "count": 4,
            "max": [
                -7.1356201171875,
                4.0,
                11.678399085998536
            ],
            "min": [
                -8.187610626220704,
                1.8189900405146329e-14,
                -2.783399820327759
            ],
            "type": "VEC3"
        },
        {
            "bufferView": 2,
            "byteOffset": 192,
            "componentType": 5126,
            "count": 4,
            "max": [
                1.0,
                1.0
            ],
            "min": [
                0.0,
                0.0
            ],
            "type": "VEC2"
        },
        {
            "bufferView": 0,
            "byteOffset": 150,
            "componentType": 5123,
            "count": 9,
            "max": [
                3
            ],
            "min": [
                0
            ],
            "type": "SCALAR"
        },
        {
            "bufferView": 1,
            "byteOffset": 864,
            "componentType": 5126,
            "count": 4,
            "max": [
                -0.07255110144615174,
                0.0,
                -0.9973649978637696
            ],
            "min": [
                -0.07255110144615174,
                0.0,
                -0.9973649978637696
            ],
            "type": "VEC3"
        },
        {
            "bufferView": 1,
            "byteOffset": 912,
            "componentType": 5126,
            "count": 4,
            "max": [
                -3.699470043182373,
                4.0,
                -2.783399820327759
            ],
            "min": [
                -8.187610626220704,
                3.6379800810292659e-14,
                -3.109879970550537
            ],
            "type": "VEC3"
        },
        {
            "bufferView": 2,
            "byteOffset": 224,
            "componentType": 5126,
            "count": 4,
            "max": [
                1.0,
                1.0
            ],
            "min": [
                0.0,
                0.0
            ],
            "type": "VEC2"
        }
    ],
    "materials": [
        {
            "pbrMetallicRoughness": {
                "baseColorFactor": [
                    0.2282350063323975,
                    0.2282350063323975,
                    0.2282350063323975,
                    1.0
                ],
                "metallicFactor": 0.0
            },
            "name": "ID42"
        },
        {
            "pbrMetallicRoughness": {
                "baseColorTexture": {
                    "index": 0
                },
                "metallicFactor": 0.0
            },
            "name": "ID2"
        },
        {
            "pbrMetallicRoughness": {
                "baseColorTexture": {
                    "index": 1
                },
                "metallicFactor": 0.0
            },
            "name": "ID7"
        },
        {
            "pbrMetallicRoughness": {
                "baseColorTexture": {
                    "index": 2
                },
                "metallicFactor": 0.0
            },
            "name": "ID12"
        },
        {
            "pbrMetallicRoughness": {
                "baseColorTexture": {
                    "index": 3
                },
                "metallicFactor": 0.0
            },
            "name": "ID17"
        },
        {
            "pbrMetallicRoughness": {
                "baseColorTexture": {
                    "index": 4
                },
                "metallicFactor": 0.0
            },
            "name": "ID22"
        },
        {
            "pbrMetallicRoughness": {
                "baseColorTexture": {
                    "index": 5
                },
                "metallicFactor": 0.0
            },
            "name": "ID27"
        },
        {
            "pbrMetallicRoughness": {
                "baseColorTexture": {
                    "index": 6
                },
                "metallicFactor": 0.0
            },
            "name": "ID32"
        },
        {
            "pbrMetallicRoughness": {
                "baseColorTexture": {
                    "index": 7
                },
                "metallicFactor": 0.0
            },
            "name": "ID37"
        }
    ],
    "textures": [
        {
            "sampler": 0,
            "source": 0
        },
        {
            "sampler": 0,
            "source": 1
        },
        {
            "sampler": 0,
            "source": 2
        },
        {
            "sampler": 0,
            "source": 3
        },
        {
            "sampler": 0,
            "source": 4
        },
        {
            "sampler": 0,
            "source": 5
        },
        {
            "sampler": 0,
            "source": 6
        },
        {
            "sampler": 0,
            "source": 7
        }
    ],
    "images": [
        {
            "uri": "data:image/jpeg;base64,"
        },
        {
            "uri": "data:image/jpeg;base64,"
        },
        {
            "uri": "data:image/jpeg;base64,"
        },
        {
            "uri": "data:image/jpeg;base64,"
        },
        {
            "uri": "data:image/jpeg;base64,"
        },
        {
            "uri": "data:image/jpeg;base64,"
        },
        {
            "uri": "data:image/jpeg;base64,"
        },
        {
            "uri": "data:image/jpeg;base64,"
        }
    ],
    "samplers": [
        {
            "magFilter": 9729,
            "minFilter": 9986,
            "wrapS": 10497,
            "wrapT": 10497
        }
    ],
    "bufferViews": [
        {
            "buffer": 0,
            "byteOffset": 1216,
            "byteLength": 168,
            "target": 34963
        },
        {
            "buffer": 0,
            "byteOffset": 0,
            "byteLength": 960,
            "byteStride": 12,
            "target": 34962
        },
        {
            "buffer": 0,
            "byteOffset": 960,
            "byteLength": 256,
            "byteStride": 8,
            "target": 34962
        }
    ],
    "buffers": [
        {
            "byteLength": 1384,
            "uri": "data:application/octet-stream;base64,"
        }
    ]
}
