{
    "asset": {
        "generator": "COLLADA2GLTF",
        "version": "2.0"
    },
    "scenes": [
        {
            "nodes": [
                0
            ]
        }
    ],
    "scene": 0,
    "nodes": [
        {
            "children": [
                1
            ],
            "name": "Y_UP"
        },
        {
            "children": [
                2
            ],
            "matrix": [
                -1.3466930348648987e-10,
                1.0,
                2.350661332251036e-12,
                0.0,
                -0.9998477101325988,
                -1.3468981485686982e-10,
                0.017452405765652658,
                0.0,
                0.017452405765652658,
                0.0,
                0.9998477101325988,
                0.0,
                -34.59189987182617,
                145.1479949951172,
                -197.85299682617188,
                1.0
            ],
            "name": "Walter-Frenzel-Bau"
        },
        {
            "mesh": 0,
            "matrix": [
                1.3625692241170385e-10,
                0.9998477101325988,
                -0.017452405765652658,
                0.0,
                1.0,
                -1.3466930348648987e-10,
                9.214384810718456e-11,
                0.0,
                8.977951021504893e-11,
                -0.017452405765652658,
                -0.9998477101325988,
                0.0,
                -145.1479949951172,
                -31.133697509765626,
                198.42599487304688,
                1.0
            ],
            "name": "Dach.1"
        }
    ],
    "meshes": [
        {
            "primitives": [
                {
                    "attributes": {
                        "NORMAL": 1,
                        "POSITION": 2
                    },
                    "indices": 0,
                    "mode": 4,
                    "material": 0
                },
                {
                    "attributes": {
                        "NORMAL": 4,
                        "POSITION": 5,
                        "TEXCOORD_0": 6
                    },
                    "indices": 3,
                    "mode": 4,
                    "material": 1
                },
                {
                    "attributes": {
                        "NORMAL": 8,
                        "POSITION": 9,
                        "TEXCOORD_0": 10
                    },
                    "indices": 7,
                    "mode": 4,
                    "material": 2
                },
                {
                    "attributes": {
                        "NORMAL": 12,
                        "POSITION": 13,
                        "TEXCOORD_0": 14
                    },
                    "indices": 11,
                    "mode": 4,
                    "material": 3
                },
                {
                    "attributes": {
                        "NORMAL": 16,
                        "POSITION": 17,
                        "TEXCOORD_0": 18
                    },
                    "indices": 15,
                    "mode": 4,
                    "material": 4
                },
                {
                    "attributes": {
                        "NORMAL": 20,
                        "POSITION": 21,
                        "TEXCOORD_0": 22
                    },
                    "indices": 19,
                    "mode": 4,
                    "material": 5
                }
            ],
            "name": "ID31"
        }
    ],
    "accessors": [
        {
            "bufferView": 0,
            "byteOffset": 0,
            "componentType": 5123,
            "count": 39,
            "max": [
                23
            ],
            "min": [
                0
            ],
            "type": "SCALAR"
        },
        {
            "bufferView": 1,
            "byteOffset": 0,
            "componentType": 5126,
            "count": 24,
            "max": [
                0.7624850273132324,
                1.0,
                0.9957910180091858
            ],
            "min": [
                -0.6568719744682312,
                -0.02702530100941658,
                -0.9955369830131532
            ],
            "type": "VEC3"
        },
        {
            "bufferView": 1,
            "byteOffset": 288,
            "componentType": 5126,
            "count": 24,
            "max": [
                15.059000015258788,
                13.854498863220217,
                19.917299270629884
            ],
            "min": [
                -15.059000015258788,
                3.229210138320923,
                -19.917299270629884
            ],
            "type": "VEC3"
        },
        {
            "bufferView": 0,
            "byteOffset": 78,
            "componentType": 5123,
            "count": 18,
            "max": [
                5
            ],
            "min": [
                0
            ],
            "type": "SCALAR"
        },
        {
            "bufferView": 1,
            "byteOffset": 576,
            "componentType": 5126,
            "count": 6,
            "max": [
                0.9959089756011964,
                -2.901940092669975e-7,
                -0.09036510437726976
            ],
            "min": [
                0.9959089756011964,
                -3.240909904889122e-7,
                -0.09036510437726976
            ],
            "type": "VEC3"
        },
        {
            "bufferView": 1,
            "byteOffset": 648,
            "componentType": 5126,
            "count": 6,
            "max": [
                15.059000015258788,
                11.02449893951416,
                18.058399200439458
            ],
            "min": [
                11.613199234008788,
                0.02448139898478985,
                -19.917299270629884
            ],
            "type": "VEC3"
        },
        {
            "bufferView": 2,
            "byteOffset": 0,
            "componentType": 5126,
            "count": 6,
            "max": [
                1.0,
                1.0
            ],
            "min": [
                0.0,
                0.0
            ],
            "type": "VEC2"
        },
        {
            "bufferView": 0,
            "byteOffset": 114,
            "componentType": 5123,
            "count": 18,
            "max": [
                5
            ],
            "min": [
                0
            ],
            "type": "SCALAR"
        },
        {
            "bufferView": 1,
            "byteOffset": 720,
            "componentType": 5126,
            "count": 6,
            "max": [
                0.09136459976434708,
                -2.651239938700201e-8,
                0.995818018913269
            ],
            "min": [
                0.09136459976434708,
                -3.9540299923146459e-8,
                0.995818018913269
            ],
            "type": "VEC3"
        },
        {
            "bufferView": 1,
            "byteOffset": 792,
            "componentType": 5126,
            "count": 6,
            "max": [
                15.059000015258788,
                11.02449893951416,
                19.917299270629884
            ],
            "min": [
                -5.2016706466674809,
                0.02448139898478985,
                18.058399200439458
            ],
            "type": "VEC3"
        },
        {
            "bufferView": 2,
            "byteOffset": 48,
            "componentType": 5126,
            "count": 6,
            "max": [
                1.0,
                1.0
            ],
            "min": [
                0.0,
                0.0
            ],
            "type": "VEC2"
        },
        {
            "bufferView": 0,
            "byteOffset": 150,
            "componentType": 5123,
            "count": 18,
            "max": [
                5
            ],
            "min": [
                0
            ],
            "type": "SCALAR"
        },
        {
            "bufferView": 1,
            "byteOffset": 864,
            "componentType": 5126,
            "count": 6,
            "max": [
                -0.995947003364563,
                3.658379910120857e-7,
                0.0899450033903122
            ],
            "min": [
                -0.995947003364563,
                3.270739910021803e-7,
                0.0899450033903122
            ],
            "type": "VEC3"
        },
        {
            "bufferView": 1,
            "byteOffset": 936,
            "componentType": 5126,
            "count": 6,
            "max": [
                -5.2016706466674809,
                11.02449893951416,
                19.917299270629884
            ],
            "min": [
                -8.615370750427246,
                0.024497998878359796,
                -17.881999969482427
            ],
            "type": "VEC3"
        },
        {
            "bufferView": 2,
            "byteOffset": 96,
            "componentType": 5126,
            "count": 6,
            "max": [
                1.0,
                1.0
            ],
            "min": [
                0.0,
                0.0
            ],
            "type": "VEC2"
        },
        {
            "bufferView": 0,
            "byteOffset": 186,
            "componentType": 5123,
            "count": 18,
            "max": [
                5
            ],
            "min": [
                0
            ],
            "type": "SCALAR"
        },
        {
            "bufferView": 1,
            "byteOffset": 1008,
            "componentType": 5126,
            "count": 6,
            "max": [
                -0.10011199861764908,
                3.1290898760971689e-8,
                -0.9949759840965272
            ],
            "min": [
                -0.10011199861764908,
                2.4570599777007378e-8,
                -0.9949759840965272
            ],
            "type": "VEC3"
        },
        {
            "bufferView": 1,
            "byteOffset": 1080,
            "componentType": 5126,
            "count": 6,
            "max": [
                11.613199234008788,
                11.02449893951416,
                -17.881999969482427
            ],
            "min": [
                -8.615370750427246,
                0.024482300505042077,
                -19.917299270629884
            ],
            "type": "VEC3"
        },
        {
            "bufferView": 2,
            "byteOffset": 144,
            "componentType": 5126,
            "count": 6,
            "max": [
                1.0,
                1.0
            ],
            "min": [
                0.0,
                0.0
            ],
            "type": "VEC2"
        },
        {
            "bufferView": 0,
            "byteOffset": 222,
            "componentType": 5123,
            "count": 9,
            "max": [
                3
            ],
            "min": [
                0
            ],
            "type": "SCALAR"
        },
        {
            "bufferView": 1,
            "byteOffset": 1152,
            "componentType": 5126,
            "count": 4,
            "max": [
                0.08338820189237595,
                0.0253152996301651,
                0.9961959719657898
            ],
            "min": [
                0.08338820189237595,
                0.0253152996301651,
                0.9961959719657898
            ],
            "type": "VEC3"
        },
        {
            "bufferView": 1,
            "byteOffset": 1200,
            "componentType": 5126,
            "count": 4,
            "max": [
                -7.656360149383545,
                5.021749973297119,
                -8.051750183105469
            ],
            "min": [
                -14.20669937133789,
                8.386809676172506e-22,
                -8.722220420837403
            ],
            "type": "VEC3"
        },
        {
            "bufferView": 2,
            "byteOffset": 192,
            "componentType": 5126,
            "count": 4,
            "max": [
                1.0,
                1.0
            ],
            "min": [
                0.0,
                0.0
            ],
            "type": "VEC2"
        }
    ],
    "materials": [
        {
            "pbrMetallicRoughness": {
                "baseColorFactor": [
                    0.3430000245571137,
                    0.39934998750686648,
                    0.4899999797344208,
                    1.0
                ],
                "metallicFactor": 0.0
            },
            "name": "ID27"
        },
        {
            "pbrMetallicRoughness": {
                "baseColorTexture": {
                    "index": 0
                },
                "metallicFactor": 0.0
            },
            "name": "ID22"
        },
        {
            "pbrMetallicRoughness": {
                "baseColorTexture": {
                    "index": 1
                },
                "metallicFactor": 0.0
            },
            "name": "ID17"
        },
        {
            "pbrMetallicRoughness": {
                "baseColorTexture": {
                    "index": 2
                },
                "metallicFactor": 0.0
            },
            "name": "ID12"
        },
        {
            "pbrMetallicRoughness": {
                "baseColorTexture": {
                    "index": 3
                },
                "metallicFactor": 0.0
            },
            "name": "ID7"
        },
        {
            "pbrMetallicRoughness": {
                "baseColorTexture": {
                    "index": 4
                },
                "metallicFactor": 0.0
            },
            "name": "ID2"
        }
    ],
    "textures": [
        {
            "sampler": 0,
            "source": 0
        },
        {
            "sampler": 0,
            "source": 1
        },
        {
            "sampler": 0,
            "source": 2
        },
        {
            "sampler": 0,
            "source": 3
        },
        {
            "sampler": 0,
            "source": 4
        }
    ],
    "images": [
        {
            "uri": "data:image/jpeg;base64,"
        },
        {
            "uri": "data:image/jpeg;base64,"
        },
        {
            "uri": "data:image/jpeg;base64,"
        },
        {
            "uri": "data:image/jpeg;base64,"
        },
        {
            "uri": "data:image/jpeg;base64,"
        }
    ],
    "samplers": [
        {
            "magFilter": 9729,
            "minFilter": 9986,
            "wrapS": 10497,
            "wrapT": 10497
        }
    ],
    "bufferViews": [
        {
            "buffer": 0,
            "byteOffset": 1472,
            "byteLength": 240,
            "target": 34963
        },
        {
            "buffer": 0,
            "byteOffset": 0,
            "byteLength": 1248,
            "byteStride": 12,
            "target": 34962
        },
        {
            "buffer": 0,
            "byteOffset": 1248,
            "byteLength": 224,
            "byteStride": 8,
            "target": 34962
        }
    ],
    "buffers": [
        {
            "byteLength": 1712,
            "uri": "data:application/octet-stream;base64,"
        }
    ]
}
