{
    "asset": {
        "generator": "COLLADA2GLTF",
        "version": "2.0"
    },
    "scenes": [
        {
            "nodes": [
                0
            ]
        }
    ],
    "scene": 0,
    "nodes": [
        {
            "children": [
                1
            ],
            "name": "Y_UP"
        },
        {
            "children": [
                2
            ],
            "matrix": [
                -1.3468981485686982e-10,
                1.0,
                0.0,
                0.0,
                -1.0,
                -1.3468981485686982e-10,
                0.0,
                0.0,
                0.0,
                0.0,
                1.0,
                0.0,
                109.697998046875,
                151.83599853515626,
                -370.4880065917969,
                1.0
            ],
            "name": "Mueller-Bau"
        },
        {
            "mesh": 0,
            "matrix": [
                1.3468981485686982e-10,
                1.0,
                -1.224526018041286e-16,
                0.0,
                1.0,
                -1.3468981485686982e-10,
                8.979318677493353e-11,
                0.0,
                8.979318677493353e-11,
                -1.2246468525851679e-16,
                -1.0,
                0.0,
                -151.83599853515626,
                109.697998046875,
                370.4880065917969,
                1.0
            ],
            "name": "Dach.1"
        }
    ],
    "meshes": [
        {
            "primitives": [
                {
                    "attributes": {
                        "NORMAL": 1,
                        "POSITION": 2
                    },
                    "indices": 0,
                    "mode": 4,
                    "material": 0
                },
                {
                    "attributes": {
                        "NORMAL": 4,
                        "POSITION": 5,
                        "TEXCOORD_0": 6
                    },
                    "indices": 3,
                    "mode": 4,
                    "material": 1
                },
                {
                    "attributes": {
                        "NORMAL": 8,
                        "POSITION": 9,
                        "TEXCOORD_0": 10
                    },
                    "indices": 7,
                    "mode": 4,
                    "material": 2
                },
                {
                    "attributes": {
                        "NORMAL": 12,
                        "POSITION": 13,
                        "TEXCOORD_0": 14
                    },
                    "indices": 11,
                    "mode": 4,
                    "material": 3
                },
                {
                    "attributes": {
                        "NORMAL": 16,
                        "POSITION": 17,
                        "TEXCOORD_0": 18
                    },
                    "indices": 15,
                    "mode": 4,
                    "material": 4
                },
                {
                    "attributes": {
                        "NORMAL": 20,
                        "POSITION": 21,
                        "TEXCOORD_0": 22
                    },
                    "indices": 19,
                    "mode": 4,
                    "material": 5
                },
                {
                    "attributes": {
                        "NORMAL": 24,
                        "POSITION": 25,
                        "TEXCOORD_0": 26
                    },
                    "indices": 23,
                    "mode": 4,
                    "material": 6
                },
                {
                    "attributes": {
                        "NORMAL": 28,
                        "POSITION": 29,
                        "TEXCOORD_0": 30
                    },
                    "indices": 27,
                    "mode": 4,
                    "material": 7
                },
                {
                    "attributes": {
                        "NORMAL": 32,
                        "POSITION": 33,
                        "TEXCOORD_0": 34
                    },
                    "indices": 31,
                    "mode": 4,
                    "material": 8
                }
            ],
            "name": "ID46"
        }
    ],
    "accessors": [
        {
            "bufferView": 0,
            "byteOffset": 0,
            "componentType": 5123,
            "count": 42,
            "max": [
                29
            ],
            "min": [
                0
            ],
            "type": "SCALAR"
        },
        {
            "bufferView": 1,
            "byteOffset": 0,
            "componentType": 5126,
            "count": 30,
            "max": [
                0.8530120253562927,
                0.6943129897117615,
                0.7555599808692932
            ],
            "min": [
                -0.842602014541626,
                0.5162490010261536,
                -0.8284140229225159
            ],
            "type": "VEC3"
        },
        {
            "bufferView": 1,
            "byteOffset": 360,
            "componentType": 5126,
            "count": 30,
            "max": [
                11.405099868774414,
                25.0,
                21.27400016784668
            ],
            "min": [
                -11.404999732971192,
                16.364999771118165,
                -21.27400016784668
            ],
            "type": "VEC3"
        },
        {
            "bufferView": 0,
            "byteOffset": 84,
            "componentType": 5123,
            "count": 9,
            "max": [
                3
            ],
            "min": [
                0
            ],
            "type": "SCALAR"
        },
        {
            "bufferView": 1,
            "byteOffset": 720,
            "componentType": 5126,
            "count": 4,
            "max": [
                -0.0831335037946701,
                2.6614399573077209e-8,
                -0.996537983417511
            ],
            "min": [
                -0.0831335037946701,
                2.6614399573077209e-8,
                -0.996537983417511
            ],
            "type": "VEC3"
        },
        {
            "bufferView": 1,
            "byteOffset": 768,
            "componentType": 5126,
            "count": 4,
            "max": [
                6.05495023727417,
                16.364999771118165,
                -20.156999588012697
            ],
            "min": [
                -7.334750175476074,
                0.000011748399629141204,
                -21.27400016784668
            ],
            "type": "VEC3"
        },
        {
            "bufferView": 2,
            "byteOffset": 0,
            "componentType": 5126,
            "count": 4,
            "max": [
                0.9899999499320984,
                1.0
            ],
            "min": [
                0.0,
                0.010000050067901612
            ],
            "type": "VEC2"
        },
        {
            "bufferView": 0,
            "byteOffset": 102,
            "componentType": 5123,
            "count": 9,
            "max": [
                3
            ],
            "min": [
                0
            ],
            "type": "SCALAR"
        },
        {
            "bufferView": 1,
            "byteOffset": 816,
            "componentType": 5126,
            "count": 4,
            "max": [
                0.9959989786148072,
                -3.163650035276078e-7,
                -0.08936730027198792
            ],
            "min": [
                0.9959989786148072,
                -3.163650035276078e-7,
                -0.08936730027198792
            ],
            "type": "VEC3"
        },
        {
            "bufferView": 1,
            "byteOffset": 864,
            "componentType": 5126,
            "count": 4,
            "max": [
                11.405099868774414,
                16.364999771118165,
                19.333999633789064
            ],
            "min": [
                9.975350379943848,
                -1.8189900405146329e-14,
                3.399999856948853
            ],
            "type": "VEC3"
        },
        {
            "bufferView": 2,
            "byteOffset": 32,
            "componentType": 5126,
            "count": 4,
            "max": [
                1.0017999410629273,
                1.050879955291748
            ],
            "min": [
                0.0,
                0.0
            ],
            "type": "VEC2"
        },
        {
            "bufferView": 0,
            "byteOffset": 120,
            "componentType": 5123,
            "count": 9,
            "max": [
                3
            ],
            "min": [
                0
            ],
            "type": "SCALAR"
        },
        {
            "bufferView": 1,
            "byteOffset": 912,
            "componentType": 5126,
            "count": 4,
            "max": [
                0.08970139920711518,
                -2.6626299387544354e-8,
                0.9959689974784852
            ],
            "min": [
                0.08970139920711518,
                -2.6626299387544354e-8,
                0.9959689974784852
            ],
            "type": "VEC3"
        },
        {
            "bufferView": 1,
            "byteOffset": 960,
            "componentType": 5126,
            "count": 4,
            "max": [
                11.405099868774414,
                16.364999771118165,
                21.27400016784668
            ],
            "min": [
                -10.135099411010744,
                -1.8189900405146329e-14,
                19.333999633789064
            ],
            "type": "VEC3"
        },
        {
            "bufferView": 2,
            "byteOffset": 64,
            "componentType": 5126,
            "count": 4,
            "max": [
                1.005010008811951,
                1.0004069805145264
            ],
            "min": [
                0.0,
                -0.002579927444458008
            ],
            "type": "VEC2"
        },
        {
            "bufferView": 0,
            "byteOffset": 138,
            "componentType": 5123,
            "count": 9,
            "max": [
                3
            ],
            "min": [
                0
            ],
            "type": "SCALAR"
        },
        {
            "bufferView": 1,
            "byteOffset": 1008,
            "componentType": 5126,
            "count": 4,
            "max": [
                -0.9969059824943544,
                2.994229930664005e-7,
                0.07860860228538513
            ],
            "min": [
                -0.9969059824943544,
                2.994229930664005e-7,
                0.07860860228538513
            ],
            "type": "VEC3"
        },
        {
            "bufferView": 1,
            "byteOffset": 1056,
            "componentType": 5126,
            "count": 4,
            "max": [
                -10.135000228881836,
                16.364999771118165,
                21.27400016784668
            ],
            "min": [
                -11.405099868774414,
                0.000027039199267164805,
                5.167999744415283
            ],
            "type": "VEC3"
        },
        {
            "bufferView": 2,
            "byteOffset": 96,
            "componentType": 5126,
            "count": 4,
            "max": [
                1.0,
                1.0004630088806153
            ],
            "min": [
                0.017434999346733094,
                0.0
            ],
            "type": "VEC2"
        },
        {
            "bufferView": 0,
            "byteOffset": 156,
            "componentType": 5123,
            "count": 9,
            "max": [
                3
            ],
            "min": [
                0
            ],
            "type": "SCALAR"
        },
        {
            "bufferView": 1,
            "byteOffset": 1104,
            "componentType": 5126,
            "count": 4,
            "max": [
                -0.07522760331630707,
                2.2684499612068977e-8,
                -0.9971659779548644
            ],
            "min": [
                -0.07522760331630707,
                2.2684499612068977e-8,
                -0.9971659779548644
            ],
            "type": "VEC3"
        },
        {
            "bufferView": 1,
            "byteOffset": 1152,
            "componentType": 5126,
            "count": 4,
            "max": [
                -5.175049781799316,
                16.364999771118165,
                5.167999744415283
            ],
            "min": [
                -11.405099868774414,
                0.000025418299628654496,
                4.697999954223633
            ],
            "type": "VEC3"
        },
        {
            "bufferView": 2,
            "byteOffset": 128,
            "componentType": 5126,
            "count": 4,
            "max": [
                0.9889779686927797,
                1.0090909004211426
            ],
            "min": [
                0.0,
                0.0
            ],
            "type": "VEC2"
        },
        {
            "bufferView": 0,
            "byteOffset": 174,
            "componentType": 5123,
            "count": 9,
            "max": [
                3
            ],
            "min": [
                0
            ],
            "type": "SCALAR"
        },
        {
            "bufferView": 1,
            "byteOffset": 1200,
            "componentType": 5126,
            "count": 4,
            "max": [
                -0.9962459802627564,
                3.170129900809116e-7,
                0.08656580001115799
            ],
            "min": [
                -0.9962459802627564,
                3.170129900809116e-7,
                0.08656580001115799
            ],
            "type": "VEC3"
        },
        {
            "bufferView": 1,
            "byteOffset": 1248,
            "componentType": 5126,
            "count": 4,
            "max": [
                -5.175049781799316,
                16.364999771118165,
                4.697999954223633
            ],
            "min": [
                -7.334750175476074,
                0.000025418299628654496,
                -20.156999588012697
            ],
            "type": "VEC3"
        },
        {
            "bufferView": 2,
            "byteOffset": 160,
            "componentType": 5126,
            "count": 4,
            "max": [
                1.0,
                1.0
            ],
            "min": [
                0.0,
                0.0
            ],
            "type": "VEC2"
        },
        {
            "bufferView": 0,
            "byteOffset": 192,
            "componentType": 5123,
            "count": 9,
            "max": [
                3
            ],
            "min": [
                0
            ],
            "type": "SCALAR"
        },
        {
            "bufferView": 1,
            "byteOffset": 1296,
            "componentType": 5126,
            "count": 4,
            "max": [
                0.99720698595047,
                -3.258819845086691e-7,
                -0.07468470185995102
            ],
            "min": [
                0.99720698595047,
                -3.258819845086691e-7,
                -0.07468470185995102
            ],
            "type": "VEC3"
        },
        {
            "bufferView": 1,
            "byteOffset": 1344,
            "componentType": 5126,
            "count": 4,
            "max": [
                7.925050258636475,
                16.364999771118165,
                3.69599986076355
            ],
            "min": [
                6.05495023727417,
                0.00001113720009016106,
                -21.27400016784668
            ],
            "type": "VEC3"
        },
        {
            "bufferView": 2,
            "byteOffset": 192,
            "componentType": 5126,
            "count": 4,
            "max": [
                1.0,
                1.0
            ],
            "min": [
                0.0,
                0.0
            ],
            "type": "VEC2"
        },
        {
            "bufferView": 0,
            "byteOffset": 210,
            "componentType": 5123,
            "count": 9,
            "max": [
                3
            ],
            "min": [
                0
            ],
            "type": "SCALAR"
        },
        {
            "bufferView": 1,
            "byteOffset": 1392,
            "componentType": 5126,
            "count": 4,
            "max": [
                -0.1428879946470261,
                4.6694999866758738e-8,
                -0.9897390007972716
            ],
            "min": [
                -0.1428879946470261,
                4.6694999866758738e-8,
                -0.9897390007972716
            ],
            "type": "VEC3"
        },
        {
            "bufferView": 1,
            "byteOffset": 1440,
            "componentType": 5126,
            "count": 4,
            "max": [
                9.975350379943848,
                16.364999771118165,
                3.69599986076355
            ],
            "min": [
                7.925050258636475,
                0.000010467198990227188,
                3.399999856948853
            ],
            "type": "VEC3"
        },
        {
            "bufferView": 2,
            "byteOffset": 224,
            "componentType": 5126,
            "count": 4,
            "max": [
                1.0,
                1.0
            ],
            "min": [
                0.0,
                0.0
            ],
            "type": "VEC2"
        }
    ],
    "materials": [
        {
            "pbrMetallicRoughness": {
                "baseColorFactor": [
                    0.2282350063323975,
                    0.2282350063323975,
                    0.2282350063323975,
                    1.0
                ],
                "metallicFactor": 0.0
            },
            "name": "ID2"
        },
        {
            "pbrMetallicRoughness": {
                "baseColorTexture": {
                    "index": 0
                },
                "metallicFactor": 0.0
            },
            "name": "ID39"
        },
        {
            "pbrMetallicRoughness": {
                "baseColorTexture": {
                    "index": 1
                },
                "metallicFactor": 0.0
            },
            "name": "ID34"
        },
        {
            "pbrMetallicRoughness": {
                "baseColorTexture": {
                    "index": 2
                },
                "metallicFactor": 0.0
            },
            "name": "ID29"
        },
        {
            "pbrMetallicRoughness": {
                "baseColorTexture": {
                    "index": 3
                },
                "metallicFactor": 0.0
            },
            "name": "ID24"
        },
        {
            "pbrMetallicRoughness": {
                "baseColorTexture": {
                    "index": 4
                },
                "metallicFactor": 0.0
            },
            "name": "ID19"
        },
        {
            "pbrMetallicRoughness": {
                "baseColorTexture": {
                    "index": 5
                },
                "metallicFactor": 0.0
            },
            "name": "ID14"
        },
        {
            "pbrMetallicRoughness": {
                "baseColorTexture": {
                    "index": 6
                },
                "metallicFactor": 0.0
            },
            "name": "ID9"
        },
        {
            "pbrMetallicRoughness": {
                "baseColorTexture": {
                    "index": 7
                },
                "metallicFactor": 0.0
            },
            "name": "ID4"
        }
    ],
    "textures": [
        {
            "sampler": 0,
            "source": 0
        },
        {
            "sampler": 0,
            "source": 1
        },
        {
            "sampler": 0,
            "source": 2
        },
        {
            "sampler": 0,
            "source": 3
        },
        {
            "sampler": 0,
            "source": 4
        },
        {
            "sampler": 0,
            "source": 5
        },
        {
            "sampler": 0,
            "source": 6
        },
        {
            "sampler": 0,
            "source": 7
        }
    ],
    "images": [
        {
            "uri": "data:image/jpeg;base64,"
        },
        {
            "uri": "data:image/jpeg;base64,"
        },
        {
            "uri": "data:image/jpeg;base64,"
        },
        {
            "uri": "data:image/jpeg;base64,"
        },
        {
            "uri": "data:image/jpeg;base64,"
        },
        {
            "uri": "data:image/jpeg;base64,"
        },
        {
            "uri": "data:image/jpeg;base64,"
        },
        {
            "uri": "data:image/jpeg;base64,"
        }
    ],
    "samplers": [
        {
            "magFilter": 9729,
            "minFilter": 9986,
            "wrapS": 10497,
            "wrapT": 10497
        }
    ],
    "bufferViews": [
        {
            "buffer": 0,
            "byteOffset": 1744,
            "byteLength": 228,
            "target": 34963
        },
        {
            "buffer": 0,
            "byteOffset": 0,
            "byteLength": 1488,
            "byteStride": 12,
            "target": 34962
        },
        {
            "buffer": 0,
            "byteOffset": 1488,
            "byteLength": 256,
            "byteStride": 8,
            "target": 34962
        }
    ],
    "buffers": [
        {
            "byteLength": 1972,
            "uri": "data:application/octet-stream;base64,"
        }
    ]
}
