{
    "asset": {
        "generator": "COLLADA2GLTF",
        "version": "2.0"
    },
    "scenes": [
        {
            "nodes": [
                0
            ]
        }
    ],
    "scene": 0,
    "nodes": [
        {
            "children": [
                1
            ],
            "name": "Y_UP"
        },
        {
            "children": [
                2
            ],
            "matrix": [
                0.00035347335506230593,
                0.9999961853027344,
                0.002738679526373744,
                0.0,
                -0.9986332654953004,
                0.0002098561672028154,
                0.052264198660850528,
                0.0,
                0.052263423800468448,
                -0.0027534104883670809,
                0.9986295104026794,
                0.0,
                13.082799911499024,
                144.91299438476566,
                -350.1669921875,
                1.0
            ],
            "name": "Verwaltungsgebaeude_2_STURA"
        },
        {
            "mesh": 0,
            "matrix": [
                0.00006609396950807422,
                0.9986331462860109,
                -0.05226661637425423,
                0.0,
                0.9999962449073792,
                -0.00020903848053421825,
                -0.0027294487226754429,
                0.0,
                -0.002736643655225635,
                -0.05226624011993408,
                -0.9986294507980348,
                0.0,
                -143.95799255371098,
                31.336698532104493,
                349.4019775390625,
                1.0
            ],
            "name": "Dach.1"
        }
    ],
    "meshes": [
        {
            "primitives": [
                {
                    "attributes": {
                        "NORMAL": 1,
                        "POSITION": 2
                    },
                    "indices": 0,
                    "mode": 4,
                    "material": 0
                },
                {
                    "attributes": {
                        "NORMAL": 4,
                        "POSITION": 5,
                        "TEXCOORD_0": 6
                    },
                    "indices": 3,
                    "mode": 4,
                    "material": 1
                },
                {
                    "attributes": {
                        "NORMAL": 8,
                        "POSITION": 9,
                        "TEXCOORD_0": 10
                    },
                    "indices": 7,
                    "mode": 4,
                    "material": 2
                },
                {
                    "attributes": {
                        "NORMAL": 12,
                        "POSITION": 13,
                        "TEXCOORD_0": 14
                    },
                    "indices": 11,
                    "mode": 4,
                    "material": 3
                }
            ],
            "name": "ID21"
        }
    ],
    "accessors": [
        {
            "bufferView": 0,
            "byteOffset": 0,
            "componentType": 5123,
            "count": 12,
            "max": [
                5
            ],
            "min": [
                0
            ],
            "type": "SCALAR"
        },
        {
            "bufferView": 1,
            "byteOffset": 0,
            "componentType": 5126,
            "count": 6,
            "max": [
                0.017020801082253457,
                0.9974589943885804,
                0.20883700251579288
            ],
            "min": [
                -0.017020801082253457,
                0.9778019785881044,
                -0.20883700251579288
            ],
            "type": "VEC3"
        },
        {
            "bufferView": 1,
            "byteOffset": 72,
            "componentType": 5126,
            "count": 6,
            "max": [
                21.997600555419927,
                6.0,
                8.723390579223633
            ],
            "min": [
                -21.997600555419927,
                4.5,
                -8.723390579223633
            ],
            "type": "VEC3"
        },
        {
            "bufferView": 0,
            "byteOffset": 24,
            "componentType": 5123,
            "count": 18,
            "max": [
                7
            ],
            "min": [
                0
            ],
            "type": "SCALAR"
        },
        {
            "bufferView": 1,
            "byteOffset": 144,
            "componentType": 5126,
            "count": 8,
            "max": [
                0.08123359829187393,
                0.0,
                0.9966949820518494
            ],
            "min": [
                -0.08123359829187393,
                0.0,
                -0.9966949820518494
            ],
            "type": "VEC3"
        },
        {
            "bufferView": 1,
            "byteOffset": 240,
            "componentType": 5126,
            "count": 8,
            "max": [
                21.997600555419927,
                4.5,
                8.723390579223633
            ],
            "min": [
                -21.997600555419927,
                5.4144798995910129e-14,
                -8.723390579223633
            ],
            "type": "VEC3"
        },
        {
            "bufferView": 2,
            "byteOffset": 0,
            "componentType": 5126,
            "count": 8,
            "max": [
                1.0,
                1.0
            ],
            "min": [
                0.0,
                0.0
            ],
            "type": "VEC2"
        },
        {
            "bufferView": 0,
            "byteOffset": 60,
            "componentType": 5123,
            "count": 12,
            "max": [
                4
            ],
            "min": [
                0
            ],
            "type": "SCALAR"
        },
        {
            "bufferView": 1,
            "byteOffset": 336,
            "componentType": 5126,
            "count": 5,
            "max": [
                0.9966949820518494,
                1.999629972715411e-7,
                -0.08123330026865006
            ],
            "min": [
                0.9966949820518494,
                0.0,
                -0.08123400062322617
            ],
            "type": "VEC3"
        },
        {
            "bufferView": 1,
            "byteOffset": 396,
            "componentType": 5126,
            "count": 5,
            "max": [
                21.997600555419927,
                6.0,
                5.230340003967285
            ],
            "min": [
                20.860300064086919,
                7.233549561202687e-14,
                -8.723390579223633
            ],
            "type": "VEC3"
        },
        {
            "bufferView": 2,
            "byteOffset": 64,
            "componentType": 5126,
            "count": 5,
            "max": [
                1.005010008811951,
                1.0
            ],
            "min": [
                -0.001803999999538064,
                0.0
            ],
            "type": "VEC2"
        },
        {
            "bufferView": 0,
            "byteOffset": 84,
            "componentType": 5123,
            "count": 12,
            "max": [
                4
            ],
            "min": [
                0
            ],
            "type": "SCALAR"
        },
        {
            "bufferView": 1,
            "byteOffset": 456,
            "componentType": 5126,
            "count": 5,
            "max": [
                -0.9966949820518494,
                0.0,
                0.08123359829187393
            ],
            "min": [
                -0.9966949820518494,
                0.0,
                0.08123359829187393
            ],
            "type": "VEC3"
        },
        {
            "bufferView": 1,
            "byteOffset": 516,
            "componentType": 5126,
            "count": 5,
            "max": [
                -20.860300064086919,
                6.0,
                8.723390579223633
            ],
            "min": [
                -21.997600555419927,
                3.5954898590763807e-14,
                -5.230340003967285
            ],
            "type": "VEC3"
        },
        {
            "bufferView": 2,
            "byteOffset": 104,
            "componentType": 5126,
            "count": 5,
            "max": [
                1.005010008811951,
                1.0
            ],
            "min": [
                -0.00821600016206503,
                0.0
            ],
            "type": "VEC2"
        }
    ],
    "materials": [
        {
            "pbrMetallicRoughness": {
                "baseColorFactor": [
                    0.2282350063323975,
                    0.2282350063323975,
                    0.2282350063323975,
                    1.0
                ],
                "metallicFactor": 0.0
            },
            "name": "ID2"
        },
        {
            "pbrMetallicRoughness": {
                "baseColorTexture": {
                    "index": 0
                },
                "metallicFactor": 0.0
            },
            "name": "ID14"
        },
        {
            "pbrMetallicRoughness": {
                "baseColorTexture": {
                    "index": 1
                },
                "metallicFactor": 0.0
            },
            "name": "ID9"
        },
        {
            "pbrMetallicRoughness": {
                "baseColorTexture": {
                    "index": 2
                },
                "metallicFactor": 0.0
            },
            "name": "ID4"
        }
    ],
    "textures": [
        {
            "sampler": 0,
            "source": 0
        },
        {
            "sampler": 0,
            "source": 1
        },
        {
            "sampler": 0,
            "source": 2
        }
    ],
    "images": [
        {
            "uri": "data:image/png;base64,"
        },
        {
            "uri": "data:image/png;base64,"
        },
        {
            "uri": "data:image/png;base64,"
        }
    ],
    "samplers": [
        {
            "magFilter": 9729,
            "minFilter": 9986,
            "wrapS": 10497,
            "wrapT": 10497
        }
    ],
    "bufferViews": [
        {
            "buffer": 0,
            "byteOffset": 720,
            "byteLength": 108,
            "target": 34963
        },
        {
            "buffer": 0,
            "byteOffset": 0,
            "byteLength": 576,
            "byteStride": 12,
            "target": 34962
        },
        {
            "buffer": 0,
            "byteOffset": 576,
            "byteLength": 144,
            "byteStride": 8,
            "target": 34962
        }
    ],
    "buffers": [
        {
            "byteLength": 828,
            "uri": "data:application/octet-stream;base64,"
        }
    ]
}
