{
    "asset": {
        "generator": "COLLADA2GLTF",
        "version": "2.0"
    },
    "scenes": [
        {
            "nodes": [
                0
            ]
        }
    ],
    "scene": 0,
    "nodes": [
        {
            "children": [
                1
            ],
            "name": "Y_UP"
        },
        {
            "children": [
                2
            ],
            "matrix": [
                -1.3468981485686982e-10,
                1.0,
                0.0,
                0.0,
                -1.0,
                -1.3468981485686982e-10,
                0.0,
                0.0,
                0.0,
                0.0,
                1.0,
                0.0,
                -4.972780227661133,
                -0.04133420065045357,
                2.4863901138305666,
                1.0
            ],
            "name": "Walther-Hempel-Bau"
        },
        {
            "mesh": 0,
            "matrix": [
                1.3468981485686982e-10,
                1.0,
                -1.224526018041286e-16,
                0.0,
                1.0,
                -1.3468981485686982e-10,
                8.979318677493353e-11,
                0.0,
                8.979318677493353e-11,
                -1.2246468525851679e-16,
                -1.0,
                0.0,
                0.041335396468639377,
                -4.972690105438232,
                -2.4863901138305666,
                1.0
            ],
            "name": "Dach.1"
        }
    ],
    "meshes": [
        {
            "primitives": [
                {
                    "attributes": {
                        "NORMAL": 1,
                        "POSITION": 2
                    },
                    "indices": 0,
                    "mode": 4,
                    "material": 0
                },
                {
                    "attributes": {
                        "NORMAL": 4,
                        "POSITION": 5
                    },
                    "indices": 3,
                    "mode": 4,
                    "material": 1
                },
                {
                    "attributes": {
                        "NORMAL": 7,
                        "POSITION": 8,
                        "TEXCOORD_0": 9
                    },
                    "indices": 6,
                    "mode": 4,
                    "material": 2
                },
                {
                    "attributes": {
                        "NORMAL": 11,
                        "POSITION": 12
                    },
                    "indices": 10,
                    "mode": 4,
                    "material": 3
                },
                {
                    "attributes": {
                        "NORMAL": 14,
                        "POSITION": 15,
                        "TEXCOORD_0": 16
                    },
                    "indices": 13,
                    "mode": 4,
                    "material": 4
                },
                {
                    "attributes": {
                        "NORMAL": 18,
                        "POSITION": 19,
                        "TEXCOORD_0": 20
                    },
                    "indices": 17,
                    "mode": 4,
                    "material": 5
                },
                {
                    "attributes": {
                        "NORMAL": 22,
                        "POSITION": 23,
                        "TEXCOORD_0": 24
                    },
                    "indices": 21,
                    "mode": 4,
                    "material": 6
                },
                {
                    "attributes": {
                        "NORMAL": 26,
                        "POSITION": 27,
                        "TEXCOORD_0": 28
                    },
                    "indices": 25,
                    "mode": 4,
                    "material": 7
                }
            ],
            "name": "ID35"
        }
    ],
    "accessors": [
        {
            "bufferView": 0,
            "byteOffset": 0,
            "componentType": 5123,
            "count": 39,
            "max": [
                27
            ],
            "min": [
                0
            ],
            "type": "SCALAR"
        },
        {
            "bufferView": 1,
            "byteOffset": 0,
            "componentType": 5126,
            "count": 28,
            "max": [
                0.0687326043844223,
                1.0,
                0.05199320241808891
            ],
            "min": [
                -0.05711570009589195,
                0.99761700630188,
                -0.0689799040555954
            ],
            "type": "VEC3"
        },
        {
            "bufferView": 1,
            "byteOffset": 336,
            "componentType": 5126,
            "count": 28,
            "max": [
                8.408510208129883,
                28.69999885559082,
                37.70849609375
            ],
            "min": [
                -8.537890434265137,
                25.30500030517578,
                -37.82649993896485
            ],
            "type": "VEC3"
        },
        {
            "bufferView": 0,
            "byteOffset": 78,
            "componentType": 5123,
            "count": 9,
            "max": [
                3
            ],
            "min": [
                0
            ],
            "type": "SCALAR"
        },
        {
            "bufferView": 1,
            "byteOffset": 672,
            "componentType": 5126,
            "count": 4,
            "max": [
                -0.9995660185813904,
                3.366369867308095e-7,
                0.02944689989089966
            ],
            "min": [
                -0.9995660185813904,
                3.366369867308095e-7,
                0.02944689989089966
            ],
            "type": "VEC3"
        },
        {
            "bufferView": 1,
            "byteOffset": 720,
            "componentType": 5126,
            "count": 4,
            "max": [
                -8.507490158081055,
                25.57100105285645,
                -35.860496520996097
            ],
            "min": [
                -8.5378999710083,
                6.5410003662109379,
                -36.89239883422852
            ],
            "type": "VEC3"
        },
        {
            "bufferView": 0,
            "byteOffset": 96,
            "componentType": 5123,
            "count": 18,
            "max": [
                7
            ],
            "min": [
                0
            ],
            "type": "SCALAR"
        },
        {
            "bufferView": 1,
            "byteOffset": 768,
            "componentType": 5126,
            "count": 8,
            "max": [
                0.9999030232429504,
                -3.367019871802768e-7,
                -0.013959299772977828
            ],
            "min": [
                0.9999030232429504,
                -3.895009967891383e-7,
                -0.013959400355815888
            ],
            "type": "VEC3"
        },
        {
            "bufferView": 1,
            "byteOffset": 864,
            "componentType": 5126,
            "count": 8,
            "max": [
                5.837510108947754,
                25.57100105285645,
                -35.89249801635742
            ],
            "min": [
                5.810499668121338,
                0.3720000088214874,
                -37.82649993896485
            ],
            "type": "VEC3"
        },
        {
            "bufferView": 2,
            "byteOffset": 0,
            "componentType": 5126,
            "count": 8,
            "max": [
                1.0,
                1.0
            ],
            "min": [
                0.0,
                0.0
            ],
            "type": "VEC2"
        },
        {
            "bufferView": 0,
            "byteOffset": 132,
            "componentType": 5123,
            "count": 36,
            "max": [
                15
            ],
            "min": [
                0
            ],
            "type": "SCALAR"
        },
        {
            "bufferView": 1,
            "byteOffset": 960,
            "componentType": 5126,
            "count": 16,
            "max": [
                0.9997249841690064,
                0.0008997870027087629,
                0.9997349977493286
            ],
            "min": [
                -0.9995790123939514,
                -0.0009128059609793128,
                -0.9999909996986388
            ],
            "type": "VEC3"
        },
        {
            "bufferView": 1,
            "byteOffset": 1152,
            "componentType": 5126,
            "count": 16,
            "max": [
                3.6045100688934328,
                28.69999885559082,
                33.5724983215332
            ],
            "min": [
                -4.132490158081055,
                25.30500030517578,
                -30.92649841308594
            ],
            "type": "VEC3"
        },
        {
            "bufferView": 0,
            "byteOffset": 204,
            "componentType": 5123,
            "count": 9,
            "max": [
                3
            ],
            "min": [
                0
            ],
            "type": "SCALAR"
        },
        {
            "bufferView": 1,
            "byteOffset": 1344,
            "componentType": 5126,
            "count": 4,
            "max": [
                -0.9994080066680908,
                0.0026733700651675464,
                0.03428899869322777
            ],
            "min": [
                -0.9994080066680908,
                0.0026733700651675464,
                0.03428899869322777
            ],
            "type": "VEC3"
        },
        {
            "bufferView": 1,
            "byteOffset": 1392,
            "componentType": 5126,
            "count": 4,
            "max": [
                -5.987490177154541,
                25.64699935913086,
                37.82649993896485
            ],
            "min": [
                -8.582499504089356,
                0.011004899628460408,
                -35.928497314453128
            ],
            "type": "VEC3"
        },
        {
            "bufferView": 2,
            "byteOffset": 64,
            "componentType": 5126,
            "count": 4,
            "max": [
                1.0,
                1.0
            ],
            "min": [
                0.0,
                0.0
            ],
            "type": "VEC2"
        },
        {
            "bufferView": 0,
            "byteOffset": 222,
            "componentType": 5123,
            "count": 9,
            "max": [
                3
            ],
            "min": [
                0
            ],
            "type": "SCALAR"
        },
        {
            "bufferView": 1,
            "byteOffset": 1440,
            "componentType": 5126,
            "count": 4,
            "max": [
                -0.006045639980584383,
                0.003962030168622732,
                -0.999974012374878
            ],
            "min": [
                -0.006045639980584383,
                0.003962030168622732,
                -0.999974012374878
            ],
            "type": "VEC3"
        },
        {
            "bufferView": 1,
            "byteOffset": 1488,
            "componentType": 5126,
            "count": 4,
            "max": [
                6.431499481201172,
                25.57100105285645,
                -35.860496520996097
            ],
            "min": [
                -8.582499504089356,
                -1.9837099714600054e-20,
                -36.05249786376953
            ],
            "type": "VEC3"
        },
        {
            "bufferView": 2,
            "byteOffset": 96,
            "componentType": 5126,
            "count": 4,
            "max": [
                1.0,
                1.0
            ],
            "min": [
                0.0,
                0.0
            ],
            "type": "VEC2"
        },
        {
            "bufferView": 0,
            "byteOffset": 240,
            "componentType": 5123,
            "count": 9,
            "max": [
                3
            ],
            "min": [
                0
            ],
            "type": "SCALAR"
        },
        {
            "bufferView": 1,
            "byteOffset": 1536,
            "componentType": 5126,
            "count": 4,
            "max": [
                0.999571979045868,
                0.0052563501521945,
                -0.02877430059015751
            ],
            "min": [
                0.999571979045868,
                0.0052563501521945,
                -0.02877430059015751
            ],
            "type": "VEC3"
        },
        {
            "bufferView": 1,
            "byteOffset": 1584,
            "componentType": 5126,
            "count": 4,
            "max": [
                8.582499504089356,
                25.63599967956543,
                37.30649948120117
            ],
            "min": [
                6.341509819030762,
                -1.9837099714600054e-20,
                -36.05249786376953
            ],
            "type": "VEC3"
        },
        {
            "bufferView": 2,
            "byteOffset": 128,
            "componentType": 5126,
            "count": 4,
            "max": [
                1.0,
                1.0
            ],
            "min": [
                0.0,
                0.0
            ],
            "type": "VEC2"
        },
        {
            "bufferView": 0,
            "byteOffset": 258,
            "componentType": 5123,
            "count": 9,
            "max": [
                3
            ],
            "min": [
                0
            ],
            "type": "SCALAR"
        },
        {
            "bufferView": 1,
            "byteOffset": 1632,
            "componentType": 5126,
            "count": 4,
            "max": [
                0.03277619928121567,
                0.0017513000639155508,
                0.999460995197296
            ],
            "min": [
                0.03277619928121567,
                0.0017513000639155508,
                0.999460995197296
            ],
            "type": "VEC3"
        },
        {
            "bufferView": 1,
            "byteOffset": 1680,
            "componentType": 5126,
            "count": 4,
            "max": [
                8.582499504089356,
                25.64699935913086,
                37.82649993896485
            ],
            "min": [
                -6.047499656677246,
                0.07599929720163346,
                37.27549743652344
            ],
            "type": "VEC3"
        },
        {
            "bufferView": 2,
            "byteOffset": 160,
            "componentType": 5126,
            "count": 4,
            "max": [
                1.0,
                1.0
            ],
            "min": [
                0.0,
                0.0
            ],
            "type": "VEC2"
        }
    ],
    "materials": [
        {
            "pbrMetallicRoughness": {
                "baseColorFactor": [
                    0.1568630039691925,
                    0.1568630039691925,
                    0.1568630039691925,
                    1.0
                ],
                "metallicFactor": 0.0
            },
            "name": "ID2"
        },
        {
            "pbrMetallicRoughness": {
                "baseColorFactor": [
                    0.4980390071868897,
                    0.4980390071868897,
                    0.4980390071868897,
                    1.0
                ],
                "metallicFactor": 0.0
            },
            "name": "ID9"
        },
        {
            "pbrMetallicRoughness": {
                "baseColorTexture": {
                    "index": 0
                },
                "metallicFactor": 0.0
            },
            "name": "ID4"
        },
        {
            "pbrMetallicRoughness": {
                "baseColorFactor": [
                    0.3725489974021912,
                    0.4627450108528137,
                    0.6000000238418579,
                    1.0
                ],
                "metallicFactor": 0.0
            },
            "name": "ID31"
        },
        {
            "pbrMetallicRoughness": {
                "baseColorTexture": {
                    "index": 1
                },
                "metallicFactor": 0.0
            },
            "name": "ID26"
        },
        {
            "pbrMetallicRoughness": {
                "baseColorTexture": {
                    "index": 2
                },
                "metallicFactor": 0.0
            },
            "name": "ID21"
        },
        {
            "pbrMetallicRoughness": {
                "baseColorTexture": {
                    "index": 3
                },
                "metallicFactor": 0.0
            },
            "name": "ID16"
        },
        {
            "pbrMetallicRoughness": {
                "baseColorTexture": {
                    "index": 4
                },
                "metallicFactor": 0.0
            },
            "name": "ID11"
        }
    ],
    "textures": [
        {
            "sampler": 0,
            "source": 0
        },
        {
            "sampler": 0,
            "source": 1
        },
        {
            "sampler": 0,
            "source": 2
        },
        {
            "sampler": 0,
            "source": 3
        },
        {
            "sampler": 0,
            "source": 4
        }
    ],
    "images": [
        {
            "uri": "data:image/jpeg;base64,"
        },
        {
            "uri": "data:image/jpeg;base64,"
        },
        {
            "uri": "data:image/png;base64,"
        },
        {
            "uri": "data:image/jpeg;base64,"
        },
        {
            "uri": "data:image/jpeg;base64,"
        }
    ],
    "samplers": [
        {
            "magFilter": 9729,
            "minFilter": 9986,
            "wrapS": 10497,
            "wrapT": 10497
        }
    ],
    "bufferViews": [
        {
            "buffer": 0,
            "byteOffset": 1920,
            "byteLength": 276,
            "target": 34963
        },
        {
            "buffer": 0,
            "byteOffset": 0,
            "byteLength": 1728,
            "byteStride": 12,
            "target": 34962
        },
        {
            "buffer": 0,
            "byteOffset": 1728,
            "byteLength": 192,
            "byteStride": 8,
            "target": 34962
        }
    ],
    "buffers": [
        {
            "byteLength": 2196,
            "uri": "data:application/octet-stream;base64,"
        }
    ]
}
