{
    "asset": {
        "generator": "COLLADA2GLTF",
        "version": "2.0"
    },
    "scenes": [
        {
            "nodes": [
                0
            ]
        }
    ],
    "scene": 0,
    "nodes": [
        {
            "children": [
                1
            ],
            "name": "Y_UP"
        },
        {
            "children": [
                2
            ],
            "matrix": [
                -0.0001043960510287434,
                1.0,
                0.0,
                0.0,
                -1.0,
                -0.0001043960510287434,
                0.0,
                0.0,
                0.0,
                0.0,
                1.0,
                0.0,
                29.03729820251465,
                149.3489990234375,
                -141.34600830078126,
                1.0
            ],
            "name": "Berndt-Bau"
        },
        {
            "mesh": 0,
            "matrix": [
                -0.00010492841101950034,
                1.0,
                -9.544320662849358e-15,
                0.0,
                1.0,
                0.00010492841101950034,
                8.979318677493353e-11,
                0.0,
                8.979318677493353e-11,
                -1.2246468525851679e-16,
                -1.0,
                0.0,
                -149.34600830078126,
                29.05179786682129,
                141.34600830078126,
                1.0
            ],
            "name": "Dach.1"
        }
    ],
    "meshes": [
        {
            "primitives": [
                {
                    "attributes": {
                        "NORMAL": 1,
                        "POSITION": 2
                    },
                    "indices": 0,
                    "mode": 4,
                    "material": 0
                },
                {
                    "attributes": {
                        "NORMAL": 4,
                        "POSITION": 5,
                        "TEXCOORD_0": 6
                    },
                    "indices": 3,
                    "mode": 4,
                    "material": 1
                },
                {
                    "attributes": {
                        "NORMAL": 8,
                        "POSITION": 9,
                        "TEXCOORD_0": 10
                    },
                    "indices": 7,
                    "mode": 4,
                    "material": 2
                },
                {
                    "attributes": {
                        "NORMAL": 12,
                        "POSITION": 13,
                        "TEXCOORD_0": 14
                    },
                    "indices": 11,
                    "mode": 4,
                    "material": 3
                },
                {
                    "attributes": {
                        "NORMAL": 16,
                        "POSITION": 17,
                        "TEXCOORD_0": 18
                    },
                    "indices": 15,
                    "mode": 4,
                    "material": 4
                },
                {
                    "attributes": {
                        "NORMAL": 20,
                        "POSITION": 21,
                        "TEXCOORD_0": 22
                    },
                    "indices": 19,
                    "mode": 4,
                    "material": 5
                },
                {
                    "attributes": {
                        "NORMAL": 24,
                        "POSITION": 25,
                        "TEXCOORD_0": 26
                    },
                    "indices": 23,
                    "mode": 4,
                    "material": 6
                },
                {
                    "attributes": {
                        "NORMAL": 28,
                        "POSITION": 29,
                        "TEXCOORD_0": 30
                    },
                    "indices": 27,
                    "mode": 4,
                    "material": 7
                },
                {
                    "attributes": {
                        "NORMAL": 32,
                        "POSITION": 33,
                        "TEXCOORD_0": 34
                    },
                    "indices": 31,
                    "mode": 4,
                    "material": 8
                },
                {
                    "attributes": {
                        "NORMAL": 36,
                        "POSITION": 37,
                        "TEXCOORD_0": 38
                    },
                    "indices": 35,
                    "mode": 4,
                    "material": 9
                }
            ],
            "name": "ID51"
        }
    ],
    "accessors": [
        {
            "bufferView": 0,
            "byteOffset": 0,
            "componentType": 5123,
            "count": 66,
            "max": [
                18
            ],
            "min": [
                0
            ],
            "type": "SCALAR"
        },
        {
            "bufferView": 1,
            "byteOffset": 0,
            "componentType": 5126,
            "count": 19,
            "max": [
                0.6604049801826477,
                0.9941139817237854,
                0.4818980097770691
            ],
            "min": [
                -0.5440710186958313,
                0.7460969686508179,
                -0.44745999574661257
            ],
            "type": "VEC3"
        },
        {
            "bufferView": 1,
            "byteOffset": 228,
            "componentType": 5126,
            "count": 19,
            "max": [
                23.95909881591797,
                22.36400032043457,
                14.517199516296389
            ],
            "min": [
                -23.96089744567871,
                17.99989891052246,
                -14.517199516296389
            ],
            "type": "VEC3"
        },
        {
            "bufferView": 0,
            "byteOffset": 132,
            "componentType": 5123,
            "count": 18,
            "max": [
                5
            ],
            "min": [
                0
            ],
            "type": "SCALAR"
        },
        {
            "bufferView": 1,
            "byteOffset": 456,
            "componentType": 5126,
            "count": 6,
            "max": [
                0.16104400157928468,
                0.00001557399991725106,
                0.9869470000267028
            ],
            "min": [
                0.16104400157928468,
                0.00001554489972477313,
                0.9869470000267028
            ],
            "type": "VEC3"
        },
        {
            "bufferView": 1,
            "byteOffset": 528,
            "componentType": 5126,
            "count": 6,
            "max": [
                -9.289130210876465,
                18.00129890441895,
                14.517199516296389
            ],
            "min": [
                -21.0508975982666,
                0.00027116600540466607,
                12.598198890686036
            ],
            "type": "VEC3"
        },
        {
            "bufferView": 2,
            "byteOffset": 0,
            "componentType": 5126,
            "count": 6,
            "max": [
                1.0,
                1.0
            ],
            "min": [
                0.0,
                0.0
            ],
            "type": "VEC2"
        },
        {
            "bufferView": 0,
            "byteOffset": 168,
            "componentType": 5123,
            "count": 18,
            "max": [
                5
            ],
            "min": [
                0
            ],
            "type": "SCALAR"
        },
        {
            "bufferView": 1,
            "byteOffset": 600,
            "componentType": 5126,
            "count": 6,
            "max": [
                0.1780180037021637,
                0.000017196400222019294,
                0.9840269684791564
            ],
            "min": [
                0.1780180037021637,
                0.000017190101061714814,
                0.9840269684791564
            ],
            "type": "VEC3"
        },
        {
            "bufferView": 1,
            "byteOffset": 672,
            "componentType": 5126,
            "count": 6,
            "max": [
                13.070798873901368,
                18.00349998474121,
                10.544198989868164
            ],
            "min": [
                -9.44087028503418,
                0.0013829299714416266,
                6.472020149230957
            ],
            "type": "VEC3"
        },
        {
            "bufferView": 2,
            "byteOffset": 48,
            "componentType": 5126,
            "count": 6,
            "max": [
                1.0,
                1.0
            ],
            "min": [
                0.0,
                0.0
            ],
            "type": "VEC2"
        },
        {
            "bufferView": 0,
            "byteOffset": 204,
            "componentType": 5123,
            "count": 18,
            "max": [
                5
            ],
            "min": [
                0
            ],
            "type": "SCALAR"
        },
        {
            "bufferView": 1,
            "byteOffset": 744,
            "componentType": 5126,
            "count": 6,
            "max": [
                -0.18236799538135529,
                -0.0000176009998540394,
                -0.9832299947738648
            ],
            "min": [
                -0.18236799538135529,
                -0.00001762360079737846,
                -0.9832299947738648
            ],
            "type": "VEC3"
        },
        {
            "bufferView": 1,
            "byteOffset": 816,
            "componentType": 5126,
            "count": 6,
            "max": [
                20.900897979736329,
                18.00419807434082,
                -12.5566987991333
            ],
            "min": [
                10.329198837280274,
                0.0032631298527121546,
                -14.517199516296389
            ],
            "type": "VEC3"
        },
        {
            "bufferView": 2,
            "byteOffset": 96,
            "componentType": 5126,
            "count": 6,
            "max": [
                1.0,
                1.0
            ],
            "min": [
                0.0,
                0.0
            ],
            "type": "VEC2"
        },
        {
            "bufferView": 0,
            "byteOffset": 240,
            "componentType": 5123,
            "count": 18,
            "max": [
                5
            ],
            "min": [
                0
            ],
            "type": "SCALAR"
        },
        {
            "bufferView": 1,
            "byteOffset": 888,
            "componentType": 5126,
            "count": 6,
            "max": [
                -0.14147700369358064,
                -0.000013665900041814894,
                -0.9899420142173768
            ],
            "min": [
                -0.14147700369358064,
                -0.00001367880031466484,
                -0.9899420142173768
            ],
            "type": "VEC3"
        },
        {
            "bufferView": 1,
            "byteOffset": 960,
            "componentType": 5126,
            "count": 6,
            "max": [
                10.49069881439209,
                18.003198623657228,
                -7.363360404968262
            ],
            "min": [
                -13.06089973449707,
                0.001033160020597279,
                -10.729000091552737
            ],
            "type": "VEC3"
        },
        {
            "bufferView": 2,
            "byteOffset": 144,
            "componentType": 5126,
            "count": 6,
            "max": [
                1.0,
                1.0
            ],
            "min": [
                0.0,
                0.0
            ],
            "type": "VEC2"
        },
        {
            "bufferView": 0,
            "byteOffset": 276,
            "componentType": 5123,
            "count": 18,
            "max": [
                5
            ],
            "min": [
                0
            ],
            "type": "SCALAR"
        },
        {
            "bufferView": 1,
            "byteOffset": 1032,
            "componentType": 5126,
            "count": 6,
            "max": [
                -0.12755998969078065,
                -0.000012323600458330477,
                -0.9918310046195984
            ],
            "min": [
                -0.12755998969078065,
                -0.00001233039984072093,
                -0.9918310046195984
            ],
            "type": "VEC3"
        },
        {
            "bufferView": 1,
            "byteOffset": 1104,
            "componentType": 5126,
            "count": 6,
            "max": [
                -13.249098777770996,
                18.000898361206056,
                -8.218899726867676
            ],
            "min": [
                -23.96089744567871,
                1.818869931242712e-14,
                -9.596320152282717
            ],
            "type": "VEC3"
        },
        {
            "bufferView": 2,
            "byteOffset": 192,
            "componentType": 5126,
            "count": 6,
            "max": [
                1.0,
                1.0
            ],
            "min": [
                0.0,
                0.0
            ],
            "type": "VEC2"
        },
        {
            "bufferView": 0,
            "byteOffset": 312,
            "componentType": 5123,
            "count": 18,
            "max": [
                5
            ],
            "min": [
                0
            ],
            "type": "SCALAR"
        },
        {
            "bufferView": 1,
            "byteOffset": 1176,
            "componentType": 5126,
            "count": 6,
            "max": [
                -0.9919090270996094,
                -0.0000957492011366412,
                0.12695500254631046
            ],
            "min": [
                -0.9919090270996094,
                -0.00009588410466676578,
                0.12695500254631046
            ],
            "type": "VEC3"
        },
        {
            "bufferView": 1,
            "byteOffset": 1248,
            "componentType": 5126,
            "count": 6,
            "max": [
                -21.04909896850586,
                18.00020027160645,
                14.517199516296389
            ],
            "min": [
                -23.96089744567871,
                1.818869931242712e-14,
                -8.218899726867676
            ],
            "type": "VEC3"
        },
        {
            "bufferView": 2,
            "byteOffset": 240,
            "componentType": 5126,
            "count": 6,
            "max": [
                1.0,
                1.0
            ],
            "min": [
                0.0,
                0.0
            ],
            "type": "VEC2"
        },
        {
            "bufferView": 0,
            "byteOffset": 348,
            "componentType": 5123,
            "count": 72,
            "max": [
                23
            ],
            "min": [
                0
            ],
            "type": "SCALAR"
        },
        {
            "bufferView": 1,
            "byteOffset": 1320,
            "componentType": 5126,
            "count": 24,
            "max": [
                0.9973440170288086,
                0.0000964225982897915,
                0.16778099536895753
            ],
            "min": [
                -0.9962040185928344,
                -0.00009621040226193144,
                -0.08478230237960816
            ],
            "type": "VEC3"
        },
        {
            "bufferView": 1,
            "byteOffset": 1608,
            "componentType": 5126,
            "count": 24,
            "max": [
                13.480899810791016,
                18.00349998474121,
                12.598198890686036
            ],
            "min": [
                -13.250899314880373,
                0.0010148099390789869,
                -12.5566987991333
            ],
            "type": "VEC3"
        },
        {
            "bufferView": 2,
            "byteOffset": 288,
            "componentType": 5126,
            "count": 24,
            "max": [
                1.0,
                1.0
            ],
            "min": [
                0.0,
                0.0
            ],
            "type": "VEC2"
        },
        {
            "bufferView": 0,
            "byteOffset": 492,
            "componentType": 5123,
            "count": 18,
            "max": [
                5
            ],
            "min": [
                0
            ],
            "type": "SCALAR"
        },
        {
            "bufferView": 1,
            "byteOffset": 1896,
            "componentType": 5126,
            "count": 6,
            "max": [
                0.18910299241542817,
                0.000018263599486090244,
                0.9819570183753968
            ],
            "min": [
                0.18910299241542817,
                0.00001826210063882172,
                0.9819570183753968
            ],
            "type": "VEC3"
        },
        {
            "bufferView": 1,
            "byteOffset": 1968,
            "componentType": 5126,
            "count": 6,
            "max": [
                23.96089744567871,
                18.004499435424806,
                8.881629943847657
            ],
            "min": [
                13.47909927368164,
                0.003567479783669114,
                6.863420486450195
            ],
            "type": "VEC3"
        },
        {
            "bufferView": 2,
            "byteOffset": 480,
            "componentType": 5126,
            "count": 6,
            "max": [
                1.0,
                1.0
            ],
            "min": [
                0.0,
                0.0
            ],
            "type": "VEC2"
        },
        {
            "bufferView": 0,
            "byteOffset": 528,
            "componentType": 5123,
            "count": 18,
            "max": [
                5
            ],
            "min": [
                0
            ],
            "type": "SCALAR"
        },
        {
            "bufferView": 1,
            "byteOffset": 2040,
            "componentType": 5126,
            "count": 6,
            "max": [
                0.9899129867553712,
                0.00009564599895384164,
                -0.14167700707912446
            ],
            "min": [
                0.9899129867553712,
                0.00009564599895384164,
                -0.14167700707912446
            ],
            "type": "VEC3"
        },
        {
            "bufferView": 1,
            "byteOffset": 2112,
            "componentType": 5126,
            "count": 6,
            "max": [
                23.96089744567871,
                18.004499435424806,
                6.863420486450195
            ],
            "min": [
                20.89909934997559,
                0.004284399561583996,
                -14.517199516296389
            ],
            "type": "VEC3"
        },
        {
            "bufferView": 2,
            "byteOffset": 528,
            "componentType": 5126,
            "count": 6,
            "max": [
                1.0,
                1.0
            ],
            "min": [
                0.0,
                0.0
            ],
            "type": "VEC2"
        }
    ],
    "materials": [
        {
            "pbrMetallicRoughness": {
                "baseColorFactor": [
                    0.34902000427246096,
                    0.34902000427246096,
                    0.34902000427246096,
                    1.0
                ],
                "metallicFactor": 0.0
            },
            "name": "ID47"
        },
        {
            "pbrMetallicRoughness": {
                "baseColorTexture": {
                    "index": 0
                },
                "metallicFactor": 0.0
            },
            "name": "ID42"
        },
        {
            "pbrMetallicRoughness": {
                "baseColorTexture": {
                    "index": 1
                },
                "metallicFactor": 0.0
            },
            "name": "ID37"
        },
        {
            "pbrMetallicRoughness": {
                "baseColorTexture": {
                    "index": 2
                },
                "metallicFactor": 0.0
            },
            "name": "ID32"
        },
        {
            "pbrMetallicRoughness": {
                "baseColorTexture": {
                    "index": 3
                },
                "metallicFactor": 0.0
            },
            "name": "ID27"
        },
        {
            "pbrMetallicRoughness": {
                "baseColorTexture": {
                    "index": 4
                },
                "metallicFactor": 0.0
            },
            "name": "ID22"
        },
        {
            "pbrMetallicRoughness": {
                "baseColorTexture": {
                    "index": 5
                },
                "metallicFactor": 0.0
            },
            "name": "ID17"
        },
        {
            "pbrMetallicRoughness": {
                "baseColorTexture": {
                    "index": 6
                },
                "metallicFactor": 0.0
            },
            "name": "ID12"
        },
        {
            "pbrMetallicRoughness": {
                "baseColorTexture": {
                    "index": 7
                },
                "metallicFactor": 0.0
            },
            "name": "ID7"
        },
        {
            "pbrMetallicRoughness": {
                "baseColorTexture": {
                    "index": 8
                },
                "metallicFactor": 0.0
            },
            "name": "ID2"
        }
    ],
    "textures": [
        {
            "sampler": 0,
            "source": 0
        },
        {
            "sampler": 0,
            "source": 1
        },
        {
            "sampler": 0,
            "source": 2
        },
        {
            "sampler": 0,
            "source": 3
        },
        {
            "sampler": 0,
            "source": 4
        },
        {
            "sampler": 0,
            "source": 5
        },
        {
            "sampler": 0,
            "source": 6
        },
        {
            "sampler": 0,
            "source": 7
        },
        {
            "sampler": 0,
            "source": 8
        }
    ],
    "images": [
        {
            "uri": "data:image/jpeg;base64,"
        },
        {
            "uri": "data:image/jpeg;base64,"
        },
        {
            "uri": "data:image/jpeg;base64,"
        },
        {
            "uri": "data:image/jpeg;base64,"
        },
        {
            "uri": "data:image/jpeg;base64,"
        },
        {
            "uri": "data:image/jpeg;base64,"
        },
        {
            "uri": "data:image/jpeg;base64,"
        },
        {
            "uri": "data:image/jpeg;base64,"
        },
        {
            "uri": "data:image/jpeg;base64,"
        }
    ],
    "samplers": [
        {
            "magFilter": 9729,
            "minFilter": 9986,
            "wrapS": 10497,
            "wrapT": 10497
        }
    ],
    "bufferViews": [
        {
            "buffer": 0,
            "byteOffset": 2760,
            "byteLength": 564,
            "target": 34963
        },
        {
            "buffer": 0,
            "byteOffset": 0,
            "byteLength": 2184,
            "byteStride": 12,
            "target": 34962
        },
        {
            "buffer": 0,
            "byteOffset": 2184,
            "byteLength": 576,
            "byteStride": 8,
            "target": 34962
        }
    ],
    "buffers": [
        {
            "byteLength": 3324,
            "uri": "data:application/octet-stream;base64,"
        }
    ]
}
