{
    "asset": {
        "generator": "COLLADA2GLTF",
        "version": "2.0"
    },
    "scenes": [
        {
            "nodes": [
                0
            ]
        }
    ],
    "scene": 0,
    "nodes": [
        {
            "children": [
                1
            ],
            "name": "Y_UP"
        },
        {
            "children": [
                2
            ],
            "matrix": [
                0.0020822174847126009,
                0.9999976754188538,
                -0.0006092314724810422,
                0.0,
                -0.9993886351585388,
                0.0020596866961568596,
                -0.03490082547068596,
                0.0,
                -0.03489948809146881,
                0.0006815301021561027,
                0.9993906021118164,
                0.0,
                0.8501999378204346,
                150.3000030517578,
                -471.6719665527344,
                1.0
            ],
            "name": "Hoersaalzentrum"
        },
        {
            "mesh": 0,
            "matrix": [
                0.002037842757999897,
                0.9993886947631836,
                0.03490067273378372,
                0.0,
                0.9999977350234984,
                -0.002057900419458747,
                0.0005387981655076146,
                0.0,
                0.0006102909101173282,
                0.03489949554204941,
                -0.9993906617164612,
                0.0,
                -150.58900451660157,
                -15.919098854064942,
                471.3119812011719,
                1.0
            ],
            "name": "Dach.1"
        }
    ],
    "meshes": [
        {
            "primitives": [
                {
                    "attributes": {
                        "NORMAL": 1,
                        "POSITION": 2
                    },
                    "indices": 0,
                    "mode": 4,
                    "material": 0
                },
                {
                    "attributes": {
                        "NORMAL": 4,
                        "POSITION": 5,
                        "TEXCOORD_0": 6
                    },
                    "indices": 3,
                    "mode": 4,
                    "material": 1
                },
                {
                    "attributes": {
                        "NORMAL": 8,
                        "POSITION": 9,
                        "TEXCOORD_0": 10
                    },
                    "indices": 7,
                    "mode": 4,
                    "material": 2
                },
                {
                    "attributes": {
                        "NORMAL": 12,
                        "POSITION": 13,
                        "TEXCOORD_0": 14
                    },
                    "indices": 11,
                    "mode": 4,
                    "material": 3
                },
                {
                    "attributes": {
                        "NORMAL": 16,
                        "POSITION": 17,
                        "TEXCOORD_0": 18
                    },
                    "indices": 15,
                    "mode": 4,
                    "material": 4
                },
                {
                    "attributes": {
                        "NORMAL": 20,
                        "POSITION": 21,
                        "TEXCOORD_0": 22
                    },
                    "indices": 19,
                    "mode": 4,
                    "material": 5
                },
                {
                    "attributes": {
                        "NORMAL": 24,
                        "POSITION": 25,
                        "TEXCOORD_0": 26
                    },
                    "indices": 23,
                    "mode": 4,
                    "material": 6
                }
            ],
            "name": "ID36"
        }
    ],
    "accessors": [
        {
            "bufferView": 0,
            "byteOffset": 0,
            "componentType": 5123,
            "count": 783,
            "max": [
                196
            ],
            "min": [
                0
            ],
            "type": "SCALAR"
        },
        {
            "bufferView": 1,
            "byteOffset": 0,
            "componentType": 5126,
            "count": 197,
            "max": [
                0.996824026107788,
                0.9999979734420776,
                0.9968259930610656
            ],
            "min": [
                -0.996953010559082,
                -0.9999979734420776,
                -0.9968259930610656
            ],
            "type": "VEC3"
        },
        {
            "bufferView": 1,
            "byteOffset": 2364,
            "componentType": 5126,
            "count": 197,
            "max": [
                32.7947998046875,
                23.12729835510254,
                33.089599609375
            ],
            "min": [
                -32.75199890136719,
                5.741439455906884e-17,
                -33.10260009765625
            ],
            "type": "VEC3"
        },
        {
            "bufferView": 0,
            "byteOffset": 1566,
            "componentType": 5123,
            "count": 9,
            "max": [
                3
            ],
            "min": [
                0
            ],
            "type": "SCALAR"
        },
        {
            "bufferView": 1,
            "byteOffset": 4728,
            "componentType": 5126,
            "count": 4,
            "max": [
                0.08075469732284546,
                0.0004386079963296652,
                0.9967340230941773
            ],
            "min": [
                0.08075469732284546,
                0.0004386079963296652,
                0.9967340230941773
            ],
            "type": "VEC3"
        },
        {
            "bufferView": 1,
            "byteOffset": 4776,
            "componentType": 5126,
            "count": 4,
            "max": [
                32.7947998046875,
                21.404598236083986,
                33.10260009765625
            ],
            "min": [
                -27.829599380493165,
                0.025153297930955888,
                28.18149757385254
            ],
            "type": "VEC3"
        },
        {
            "bufferView": 2,
            "byteOffset": 0,
            "componentType": 5126,
            "count": 4,
            "max": [
                1.0,
                1.0
            ],
            "min": [
                0.0,
                0.0
            ],
            "type": "VEC2"
        },
        {
            "bufferView": 0,
            "byteOffset": 1584,
            "componentType": 5123,
            "count": 9,
            "max": [
                3
            ],
            "min": [
                0
            ],
            "type": "SCALAR"
        },
        {
            "bufferView": 1,
            "byteOffset": 4824,
            "componentType": 5126,
            "count": 4,
            "max": [
                -0.996733009815216,
                0.0021288199350237848,
                0.0807391032576561
            ],
            "min": [
                -0.996733009815216,
                0.0021288199350237848,
                0.0807391032576561
            ],
            "type": "VEC3"
        },
        {
            "bufferView": 1,
            "byteOffset": 4872,
            "componentType": 5126,
            "count": 4,
            "max": [
                -27.785200119018556,
                21.404598236083986,
                33.10260009765625
            ],
            "min": [
                -32.7947998046875,
                0.1275869905948639,
                -28.20589828491211
            ],
            "type": "VEC3"
        },
        {
            "bufferView": 2,
            "byteOffset": 32,
            "componentType": 5126,
            "count": 4,
            "max": [
                1.0,
                1.0
            ],
            "min": [
                0.0,
                0.0
            ],
            "type": "VEC2"
        },
        {
            "bufferView": 0,
            "byteOffset": 1602,
            "componentType": 5123,
            "count": 9,
            "max": [
                3
            ],
            "min": [
                0
            ],
            "type": "SCALAR"
        },
        {
            "bufferView": 1,
            "byteOffset": 4920,
            "componentType": 5126,
            "count": 4,
            "max": [
                -0.08079049736261368,
                -0.0004385479842312634,
                -0.9967309832572936
            ],
            "min": [
                -0.08079049736261368,
                -0.0004385479842312634,
                -0.9967309832572936
            ],
            "type": "VEC3"
        },
        {
            "bufferView": 1,
            "byteOffset": 4968,
            "componentType": 5126,
            "count": 4,
            "max": [
                28.36400032043457,
                20.52099990844727,
                -25.855897903442384
            ],
            "min": [
                18.951099395751954,
                0.001010119915008545,
                -26.627899169921876
            ],
            "type": "VEC3"
        },
        {
            "bufferView": 2,
            "byteOffset": 64,
            "componentType": 5126,
            "count": 4,
            "max": [
                1.0,
                1.0
            ],
            "min": [
                0.0,
                0.0
            ],
            "type": "VEC2"
        },
        {
            "bufferView": 0,
            "byteOffset": 1620,
            "componentType": 5123,
            "count": 9,
            "max": [
                3
            ],
            "min": [
                0
            ],
            "type": "SCALAR"
        },
        {
            "bufferView": 1,
            "byteOffset": 5016,
            "componentType": 5126,
            "count": 4,
            "max": [
                0.63093501329422,
                -0.0017889899900183082,
                -0.7758340239524841
            ],
            "min": [
                0.63093501329422,
                -0.0017889899900183082,
                -0.7758340239524841
            ],
            "type": "VEC3"
        },
        {
            "bufferView": 1,
            "byteOffset": 5064,
            "componentType": 5126,
            "count": 4,
            "max": [
                -25.45369911193848,
                20.627599716186525,
                -22.257699966430665
            ],
            "min": [
                -32.7947998046875,
                0.11597399413585664,
                -28.20549964904785
            ],
            "type": "VEC3"
        },
        {
            "bufferView": 2,
            "byteOffset": 96,
            "componentType": 5126,
            "count": 4,
            "max": [
                1.0,
                1.0
            ],
            "min": [
                0.0,
                0.0
            ],
            "type": "VEC2"
        },
        {
            "bufferView": 0,
            "byteOffset": 1638,
            "componentType": 5123,
            "count": 9,
            "max": [
                3
            ],
            "min": [
                0
            ],
            "type": "SCALAR"
        },
        {
            "bufferView": 1,
            "byteOffset": 5112,
            "componentType": 5126,
            "count": 4,
            "max": [
                0.996748983860016,
                -0.002128750085830689,
                -0.08054669946432114
            ],
            "min": [
                0.996748983860016,
                -0.002128750085830689,
                -0.08054669946432114
            ],
            "type": "VEC3"
        },
        {
            "bufferView": 1,
            "byteOffset": 5160,
            "componentType": 5126,
            "count": 4,
            "max": [
                32.79319763183594,
                20.52509880065918,
                28.19449806213379
            ],
            "min": [
                28.321197509765626,
                0.001010119915008545,
                -26.627899169921876
            ],
            "type": "VEC3"
        },
        {
            "bufferView": 2,
            "byteOffset": 128,
            "componentType": 5126,
            "count": 4,
            "max": [
                1.0,
                1.0
            ],
            "min": [
                0.0,
                0.0
            ],
            "type": "VEC2"
        },
        {
            "bufferView": 0,
            "byteOffset": 1656,
            "componentType": 5123,
            "count": 9,
            "max": [
                3
            ],
            "min": [
                0
            ],
            "type": "SCALAR"
        },
        {
            "bufferView": 1,
            "byteOffset": 5208,
            "componentType": 5126,
            "count": 4,
            "max": [
                -0.08113659918308258,
                -0.00043780001578852534,
                -0.9967029690742492
            ],
            "min": [
                -0.08113659918308258,
                -0.00043780001578852534,
                -0.9967029690742492
            ],
            "type": "VEC3"
        },
        {
            "bufferView": 1,
            "byteOffset": 5256,
            "componentType": 5126,
            "count": 4,
            "max": [
                19.105899810791017,
                20.61600112915039,
                -22.257699966430665
            ],
            "min": [
                -25.49649810791016,
                0.02069179899990559,
                -25.897499084472658
            ],
            "type": "VEC3"
        },
        {
            "bufferView": 2,
            "byteOffset": 160,
            "componentType": 5126,
            "count": 4,
            "max": [
                1.0090899467468262,
                0.9712790250778198
            ],
            "min": [
                0.0,
                0.0
            ],
            "type": "VEC2"
        }
    ],
    "materials": [
        {
            "pbrMetallicRoughness": {
                "baseColorFactor": [
                    0.49411800503730776,
                    0.49411800503730776,
                    0.49411800503730776,
                    1.0
                ],
                "metallicFactor": 0.0
            },
            "name": "ID2"
        },
        {
            "pbrMetallicRoughness": {
                "baseColorTexture": {
                    "index": 0
                },
                "metallicFactor": 0.0
            },
            "name": "ID29"
        },
        {
            "pbrMetallicRoughness": {
                "baseColorTexture": {
                    "index": 1
                },
                "metallicFactor": 0.0
            },
            "name": "ID24"
        },
        {
            "pbrMetallicRoughness": {
                "baseColorTexture": {
                    "index": 2
                },
                "metallicFactor": 0.0
            },
            "name": "ID19"
        },
        {
            "pbrMetallicRoughness": {
                "baseColorTexture": {
                    "index": 3
                },
                "metallicFactor": 0.0
            },
            "name": "ID14"
        },
        {
            "pbrMetallicRoughness": {
                "baseColorTexture": {
                    "index": 4
                },
                "metallicFactor": 0.0
            },
            "name": "ID9"
        },
        {
            "pbrMetallicRoughness": {
                "baseColorTexture": {
                    "index": 5
                },
                "metallicFactor": 0.0
            },
            "name": "ID4"
        }
    ],
    "textures": [
        {
            "sampler": 0,
            "source": 0
        },
        {
            "sampler": 0,
            "source": 1
        },
        {
            "sampler": 0,
            "source": 2
        },
        {
            "sampler": 0,
            "source": 3
        },
        {
            "sampler": 0,
            "source": 4
        },
        {
            "sampler": 0,
            "source": 5
        }
    ],
    "images": [
        {
            "uri": "data:image/jpeg;base64,"
        },
        {
            "uri": "data:image/jpeg;base64,"
        },
        {
            "uri": "data:image/jpeg;base64,"
        },
        {
            "uri": "data:image/jpeg;base64,"
        },
        {
            "uri": "data:image/jpeg;base64,"
        },
        {
            "uri": "data:image/jpeg;base64,"
        }
    ],
    "samplers": [
        {
            "magFilter": 9729,
            "minFilter": 9986,
            "wrapS": 10497,
            "wrapT": 10497
        }
    ],
    "bufferViews": [
        {
            "buffer": 0,
            "byteOffset": 5496,
            "byteLength": 1674,
            "target": 34963
        },
        {
            "buffer": 0,
            "byteOffset": 0,
            "byteLength": 5304,
            "byteStride": 12,
            "target": 34962
        },
        {
            "buffer": 0,
            "byteOffset": 5304,
            "byteLength": 192,
            "byteStride": 8,
            "target": 34962
        }
    ],
    "buffers": [
        {
            "byteLength": 7170,
            "uri": "data:application/octet-stream;base64,"
        }
    ]
}
