{
    "asset": {
        "generator": "COLLADA2GLTF",
        "version": "2.0"
    },
    "scenes": [
        {
            "nodes": [
                0
            ]
        }
    ],
    "scene": 0,
    "nodes": [
        {
            "children": [
                1
            ],
            "name": "Y_UP"
        },
        {
            "children": [
                2
            ],
            "matrix": [
                -0.0018183971988037229,
                0.9999980926513672,
                -0.0006854555103927851,
                0.0,
                -0.9986295700073242,
                -0.0017800555797293785,
                0.05230536311864853,
                0.0,
                0.05230404436588288,
                0.0007796280551701784,
                0.9986308813095092,
                0.0,
                37.068397521972659,
                148.14599609375,
                -171.03201293945313,
                1.0
            ],
            "name": "Sachsenberg-Bau"
        },
        {
            "mesh": 0,
            "matrix": [
                -0.001762577216140926,
                0.9986297488212586,
                -0.052302226424217227,
                0.0,
                0.9999982118606569,
                0.0017957042437046769,
                0.0005863906117156148,
                0.0,
                0.0006795063964091241,
                -0.05230110138654709,
                -0.9986311197280884,
                0.0,
                -148.1949920654297,
                46.228397369384769,
                168.74301147460938,
                1.0
            ],
            "name": "Dach.1"
        }
    ],
    "meshes": [
        {
            "primitives": [
                {
                    "attributes": {
                        "NORMAL": 1,
                        "POSITION": 2
                    },
                    "indices": 0,
                    "mode": 4,
                    "material": 0
                },
                {
                    "attributes": {
                        "NORMAL": 4,
                        "POSITION": 5
                    },
                    "indices": 3,
                    "mode": 4,
                    "material": 1
                },
                {
                    "attributes": {
                        "NORMAL": 7,
                        "POSITION": 8,
                        "TEXCOORD_0": 9
                    },
                    "indices": 6,
                    "mode": 4,
                    "material": 2
                },
                {
                    "attributes": {
                        "NORMAL": 11,
                        "POSITION": 12,
                        "TEXCOORD_0": 13
                    },
                    "indices": 10,
                    "mode": 4,
                    "material": 3
                },
                {
                    "attributes": {
                        "NORMAL": 15,
                        "POSITION": 16,
                        "TEXCOORD_0": 17
                    },
                    "indices": 14,
                    "mode": 4,
                    "material": 4
                },
                {
                    "attributes": {
                        "NORMAL": 19,
                        "POSITION": 20,
                        "TEXCOORD_0": 21
                    },
                    "indices": 18,
                    "mode": 4,
                    "material": 5
                },
                {
                    "attributes": {
                        "NORMAL": 23,
                        "POSITION": 24,
                        "TEXCOORD_0": 25
                    },
                    "indices": 22,
                    "mode": 4,
                    "material": 6
                },
                {
                    "attributes": {
                        "NORMAL": 27,
                        "POSITION": 28,
                        "TEXCOORD_0": 29
                    },
                    "indices": 26,
                    "mode": 4,
                    "material": 7
                }
            ],
            "name": "ID38"
        }
    ],
    "accessors": [
        {
            "bufferView": 0,
            "byteOffset": 0,
            "componentType": 5123,
            "count": 69,
            "max": [
                35
            ],
            "min": [
                0
            ],
            "type": "SCALAR"
        },
        {
            "bufferView": 1,
            "byteOffset": 0,
            "componentType": 5126,
            "count": 36,
            "max": [
                0.4815270006656647,
                1.0,
                0.4815270006656647
            ],
            "min": [
                -0.4815270006656647,
                -6.109780201768444e-7,
                -0.9915249943733216
            ],
            "type": "VEC3"
        },
        {
            "bufferView": 1,
            "byteOffset": 432,
            "componentType": 5126,
            "count": 36,
            "max": [
                14.16510009765625,
                17.5,
                29.516597747802736
            ],
            "min": [
                -14.16510009765625,
                12.0,
                -29.516597747802736
            ],
            "type": "VEC3"
        },
        {
            "bufferView": 0,
            "byteOffset": 138,
            "componentType": 5123,
            "count": 36,
            "max": [
                15
            ],
            "min": [
                0
            ],
            "type": "SCALAR"
        },
        {
            "bufferView": 1,
            "byteOffset": 864,
            "componentType": 5126,
            "count": 16,
            "max": [
                0.9915249943733216,
                3.02589000966691e-7,
                0.9915249943733216
            ],
            "min": [
                -0.9915249943733216,
                0.0,
                -0.9915249943733216
            ],
            "type": "VEC3"
        },
        {
            "bufferView": 1,
            "byteOffset": 1056,
            "componentType": 5126,
            "count": 16,
            "max": [
                14.16510009765625,
                15.0,
                -16.448999404907228
            ],
            "min": [
                4.072120189666748,
                12.0,
                -26.54199981689453
            ],
            "type": "VEC3"
        },
        {
            "bufferView": 0,
            "byteOffset": 210,
            "componentType": 5123,
            "count": 9,
            "max": [
                3
            ],
            "min": [
                0
            ],
            "type": "SCALAR"
        },
        {
            "bufferView": 1,
            "byteOffset": 1248,
            "componentType": 5126,
            "count": 4,
            "max": [
                -0.9915249943733216,
                0.0,
                0.1299159973859787
            ],
            "min": [
                -0.9915249943733216,
                0.0,
                0.1299159973859787
            ],
            "type": "VEC3"
        },
        {
            "bufferView": 1,
            "byteOffset": 1296,
            "componentType": 5126,
            "count": 4,
            "max": [
                -6.889810085296631,
                12.0,
                29.516597747802736
            ],
            "min": [
                -12.606099128723145,
                7.274939656763679e-14,
                -14.110499382019045
            ],
            "type": "VEC3"
        },
        {
            "bufferView": 2,
            "byteOffset": 0,
            "componentType": 5126,
            "count": 4,
            "max": [
                1.0,
                1.0
            ],
            "min": [
                0.0,
                0.0
            ],
            "type": "VEC2"
        },
        {
            "bufferView": 0,
            "byteOffset": 228,
            "componentType": 5123,
            "count": 9,
            "max": [
                3
            ],
            "min": [
                0
            ],
            "type": "SCALAR"
        },
        {
            "bufferView": 1,
            "byteOffset": 1344,
            "componentType": 5126,
            "count": 4,
            "max": [
                -0.9915249943733216,
                0.0,
                0.1299159973859787
            ],
            "min": [
                -0.9915249943733216,
                0.0,
                0.1299159973859787
            ],
            "type": "VEC3"
        },
        {
            "bufferView": 1,
            "byteOffset": 1392,
            "componentType": 5126,
            "count": 4,
            "max": [
                -12.606099128723145,
                12.0,
                -14.110499382019045
            ],
            "min": [
                -14.16510009765625,
                7.275340133941141e-14,
                -26.008798599243165
            ],
            "type": "VEC3"
        },
        {
            "bufferView": 2,
            "byteOffset": 32,
            "componentType": 5126,
            "count": 4,
            "max": [
                1.0,
                1.0
            ],
            "min": [
                0.0,
                0.0
            ],
            "type": "VEC2"
        },
        {
            "bufferView": 0,
            "byteOffset": 246,
            "componentType": 5123,
            "count": 9,
            "max": [
                3
            ],
            "min": [
                0
            ],
            "type": "SCALAR"
        },
        {
            "bufferView": 1,
            "byteOffset": 1440,
            "componentType": 5126,
            "count": 4,
            "max": [
                0.9915249943733216,
                0.0,
                -0.1299149990081787
            ],
            "min": [
                0.9915249943733216,
                0.0,
                -0.1299149990081787
            ],
            "type": "VEC3"
        },
        {
            "bufferView": 1,
            "byteOffset": 1488,
            "componentType": 5126,
            "count": 4,
            "max": [
                6.000010013580322,
                12.0,
                27.827699661254884
            ],
            "min": [
                5.22052001953125,
                7.274029604565149e-14,
                21.87849807739258
            ],
            "type": "VEC3"
        },
        {
            "bufferView": 2,
            "byteOffset": 64,
            "componentType": 5126,
            "count": 4,
            "max": [
                1.0,
                1.0
            ],
            "min": [
                0.0,
                0.0
            ],
            "type": "VEC2"
        },
        {
            "bufferView": 0,
            "byteOffset": 264,
            "componentType": 5123,
            "count": 9,
            "max": [
                3
            ],
            "min": [
                0
            ],
            "type": "SCALAR"
        },
        {
            "bufferView": 1,
            "byteOffset": 1536,
            "componentType": 5126,
            "count": 4,
            "max": [
                0.1299159973859787,
                -2.5029599127633554e-15,
                0.9915249943733216
            ],
            "min": [
                0.1299159973859787,
                -2.5029599127633554e-15,
                0.9915249943733216
            ],
            "type": "VEC3"
        },
        {
            "bufferView": 1,
            "byteOffset": 1584,
            "componentType": 5126,
            "count": 4,
            "max": [
                6.000010013580322,
                12.0,
                29.516597747802736
            ],
            "min": [
                -6.889810085296631,
                7.274029604565149e-14,
                27.827699661254884
            ],
            "type": "VEC3"
        },
        {
            "bufferView": 2,
            "byteOffset": 96,
            "componentType": 5126,
            "count": 4,
            "max": [
                1.0,
                1.0
            ],
            "min": [
                0.0,
                0.0
            ],
            "type": "VEC2"
        },
        {
            "bufferView": 0,
            "byteOffset": 282,
            "componentType": 5123,
            "count": 9,
            "max": [
                3
            ],
            "min": [
                0
            ],
            "type": "SCALAR"
        },
        {
            "bufferView": 1,
            "byteOffset": 1632,
            "componentType": 5126,
            "count": 4,
            "max": [
                0.9915249943733216,
                -1.8888199449060458e-15,
                -0.1299159973859787
            ],
            "min": [
                0.9915249943733216,
                -1.8888199449060458e-15,
                -0.1299159973859787
            ],
            "type": "VEC3"
        },
        {
            "bufferView": 1,
            "byteOffset": 1680,
            "componentType": 5126,
            "count": 4,
            "max": [
                12.99579906463623,
                12.0,
                -26.54199981689453
            ],
            "min": [
                12.606099128723145,
                3.6355799284699267e-14,
                -29.516597747802736
            ],
            "type": "VEC3"
        },
        {
            "bufferView": 2,
            "byteOffset": 128,
            "componentType": 5126,
            "count": 4,
            "max": [
                1.0,
                1.0
            ],
            "min": [
                0.0,
                0.0
            ],
            "type": "VEC2"
        },
        {
            "bufferView": 0,
            "byteOffset": 300,
            "componentType": 5123,
            "count": 9,
            "max": [
                3
            ],
            "min": [
                0
            ],
            "type": "SCALAR"
        },
        {
            "bufferView": 1,
            "byteOffset": 1728,
            "componentType": 5126,
            "count": 4,
            "max": [
                -0.1299159973859787,
                3.960080198738827e-17,
                -0.9915249943733216
            ],
            "min": [
                -0.1299159973859787,
                3.960080198738827e-17,
                -0.9915249943733216
            ],
            "type": "VEC3"
        },
        {
            "bufferView": 1,
            "byteOffset": 1776,
            "componentType": 5126,
            "count": 4,
            "max": [
                12.606099128723145,
                12.0,
                -26.008798599243165
            ],
            "min": [
                -14.16510009765625,
                3.6355799284699267e-14,
                -29.516597747802736
            ],
            "type": "VEC3"
        },
        {
            "bufferView": 2,
            "byteOffset": 160,
            "componentType": 5126,
            "count": 4,
            "max": [
                1.0,
                1.0
            ],
            "min": [
                0.0,
                0.0
            ],
            "type": "VEC2"
        }
    ],
    "materials": [
        {
            "pbrMetallicRoughness": {
                "baseColorFactor": [
                    0.21176500618457798,
                    0.21176500618457798,
                    0.21960799396038056,
                    1.0
                ],
                "metallicFactor": 0.0
            },
            "name": "ID34"
        },
        {
            "pbrMetallicRoughness": {
                "baseColorFactor": [
                    0.7911999821662903,
                    0.8210129737854004,
                    0.85999995470047,
                    1.0
                ],
                "metallicFactor": 0.0
            },
            "name": "ID2"
        },
        {
            "pbrMetallicRoughness": {
                "baseColorTexture": {
                    "index": 0
                },
                "metallicFactor": 0.0
            },
            "name": "ID29"
        },
        {
            "pbrMetallicRoughness": {
                "baseColorTexture": {
                    "index": 1
                },
                "metallicFactor": 0.0
            },
            "name": "ID24"
        },
        {
            "pbrMetallicRoughness": {
                "baseColorTexture": {
                    "index": 2
                },
                "metallicFactor": 0.0
            },
            "name": "ID19"
        },
        {
            "pbrMetallicRoughness": {
                "baseColorTexture": {
                    "index": 3
                },
                "metallicFactor": 0.0
            },
            "name": "ID14"
        },
        {
            "pbrMetallicRoughness": {
                "baseColorTexture": {
                    "index": 4
                },
                "metallicFactor": 0.0
            },
            "name": "ID9"
        },
        {
            "pbrMetallicRoughness": {
                "baseColorTexture": {
                    "index": 5
                },
                "metallicFactor": 0.0
            },
            "name": "ID4"
        }
    ],
    "textures": [
        {
            "sampler": 0,
            "source": 0
        },
        {
            "sampler": 0,
            "source": 1
        },
        {
            "sampler": 0,
            "source": 2
        },
        {
            "sampler": 0,
            "source": 3
        },
        {
            "sampler": 0,
            "source": 4
        },
        {
            "sampler": 0,
            "source": 5
        }
    ],
    "images": [
        {
            "uri": "data:image/jpeg;base64,"
        },
        {
            "uri": "data:image/jpeg;base64,"
        },
        {
            "uri": "data:image/jpeg;base64,"
        },
        {
            "uri": "data:image/jpeg;base64,"
        },
        {
            "uri": "data:image/jpeg;base64,"
        },
        {
            "uri": "data:image/jpeg;base64,"
        }
    ],
    "samplers": [
        {
            "magFilter": 9729,
            "minFilter": 9986,
            "wrapS": 10497,
            "wrapT": 10497
        }
    ],
    "bufferViews": [
        {
            "buffer": 0,
            "byteOffset": 2016,
            "byteLength": 318,
            "target": 34963
        },
        {
            "buffer": 0,
            "byteOffset": 0,
            "byteLength": 1824,
            "byteStride": 12,
            "target": 34962
        },
        {
            "buffer": 0,
            "byteOffset": 1824,
            "byteLength": 192,
            "byteStride": 8,
            "target": 34962
        }
    ],
    "buffers": [
        {
            "byteLength": 2334,
            "uri": "data:application/octet-stream;base64,"
        }
    ]
}
