{
    "asset": {
        "generator": "COLLADA2GLTF",
        "version": "2.0"
    },
    "scenes": [
        {
            "nodes": [
                0
            ]
        }
    ],
    "scene": 0,
    "nodes": [
        {
            "children": [
                1
            ],
            "name": "Y_UP"
        },
        {
            "children": [
                2
            ],
            "matrix": [
                -1.3468981485686982e-10,
                0.9998332262039184,
                -0.01826123706996441,
                0.0,
                -1.0,
                -1.3466736059619678e-10,
                2.459602617063683e-12,
                0.0,
                0.0,
                0.01826123706996441,
                0.9998332262039184,
                0.0,
                121.11100006103516,
                154.36599731445313,
                12.040498733520508,
                1.0
            ],
            "name": "Georg-Schumann-Str7a"
        },
        {
            "mesh": 0,
            "matrix": [
                1.346673744739846e-10,
                1.0,
                2.458634207683219e-12,
                0.0,
                0.999833345413208,
                -1.3468981485686982e-10,
                0.018254956230521207,
                0.0,
                0.018254956230521207,
                -1.2246468525851679e-16,
                -0.999833345413208,
                0.0,
                -154.12100219726566,
                121.11100006103516,
                -14.857600212097168,
                1.0
            ],
            "name": "Dach.1"
        }
    ],
    "meshes": [
        {
            "primitives": [
                {
                    "attributes": {
                        "NORMAL": 1,
                        "POSITION": 2
                    },
                    "indices": 0,
                    "mode": 4,
                    "material": 0
                },
                {
                    "attributes": {
                        "NORMAL": 4,
                        "POSITION": 5
                    },
                    "indices": 3,
                    "mode": 4,
                    "material": 1
                },
                {
                    "attributes": {
                        "NORMAL": 7,
                        "POSITION": 8,
                        "TEXCOORD_0": 9
                    },
                    "indices": 6,
                    "mode": 4,
                    "material": 2
                },
                {
                    "attributes": {
                        "NORMAL": 11,
                        "POSITION": 12,
                        "TEXCOORD_0": 13
                    },
                    "indices": 10,
                    "mode": 4,
                    "material": 3
                },
                {
                    "attributes": {
                        "NORMAL": 15,
                        "POSITION": 16,
                        "TEXCOORD_0": 17
                    },
                    "indices": 14,
                    "mode": 4,
                    "material": 4
                },
                {
                    "attributes": {
                        "NORMAL": 19,
                        "POSITION": 20,
                        "TEXCOORD_0": 21
                    },
                    "indices": 18,
                    "mode": 4,
                    "material": 5
                },
                {
                    "attributes": {
                        "NORMAL": 23,
                        "POSITION": 24,
                        "TEXCOORD_0": 25
                    },
                    "indices": 22,
                    "mode": 4,
                    "material": 6
                },
                {
                    "attributes": {
                        "NORMAL": 27,
                        "POSITION": 28,
                        "TEXCOORD_0": 29
                    },
                    "indices": 26,
                    "mode": 4,
                    "material": 7
                }
            ],
            "name": "ID38"
        }
    ],
    "accessors": [
        {
            "bufferView": 0,
            "byteOffset": 0,
            "componentType": 5123,
            "count": 6,
            "max": [
                3
            ],
            "min": [
                0
            ],
            "type": "SCALAR"
        },
        {
            "bufferView": 1,
            "byteOffset": 0,
            "componentType": 5126,
            "count": 4,
            "max": [
                0.0,
                1.0,
                -0.0
            ],
            "min": [
                0.0,
                1.0,
                -0.0
            ],
            "type": "VEC3"
        },
        {
            "bufferView": 1,
            "byteOffset": 48,
            "componentType": 5126,
            "count": 4,
            "max": [
                19.93549919128418,
                9.5,
                51.28979873657227
            ],
            "min": [
                -18.44649887084961,
                9.5,
                -41.91949462890625
            ],
            "type": "VEC3"
        },
        {
            "bufferView": 0,
            "byteOffset": 12,
            "componentType": 5123,
            "count": 12,
            "max": [
                7
            ],
            "min": [
                0
            ],
            "type": "SCALAR"
        },
        {
            "bufferView": 1,
            "byteOffset": 96,
            "componentType": 5126,
            "count": 8,
            "max": [
                0.0,
                1.0,
                -0.0
            ],
            "min": [
                0.0,
                1.0,
                -0.0
            ],
            "type": "VEC3"
        },
        {
            "bufferView": 1,
            "byteOffset": 192,
            "componentType": 5126,
            "count": 8,
            "max": [
                22.364898681640626,
                19.0,
                66.6104965209961
            ],
            "min": [
                -22.364898681640626,
                14.0,
                -66.6104965209961
            ],
            "type": "VEC3"
        },
        {
            "bufferView": 0,
            "byteOffset": 36,
            "componentType": 5123,
            "count": 18,
            "max": [
                7
            ],
            "min": [
                0
            ],
            "type": "SCALAR"
        },
        {
            "bufferView": 1,
            "byteOffset": 288,
            "componentType": 5126,
            "count": 8,
            "max": [
                -0.9876399636268616,
                0.0,
                0.15673799812793733
            ],
            "min": [
                -0.9876399636268616,
                -3.7600599966935997e-8,
                0.15673799812793733
            ],
            "type": "VEC3"
        },
        {
            "bufferView": 1,
            "byteOffset": 384,
            "componentType": 5126,
            "count": 8,
            "max": [
                -4.261690139770508,
                9.5,
                51.30209732055664
            ],
            "min": [
                -22.364898681640626,
                3.6450897367753396e-14,
                -62.7703971862793
            ],
            "type": "VEC3"
        },
        {
            "bufferView": 2,
            "byteOffset": 0,
            "componentType": 5126,
            "count": 8,
            "max": [
                1.0,
                1.0
            ],
            "min": [
                0.0,
                0.0
            ],
            "type": "VEC2"
        },
        {
            "bufferView": 0,
            "byteOffset": 72,
            "componentType": 5123,
            "count": 27,
            "max": [
                11
            ],
            "min": [
                0
            ],
            "type": "SCALAR"
        },
        {
            "bufferView": 1,
            "byteOffset": 480,
            "componentType": 5126,
            "count": 12,
            "max": [
                0.9876399636268616,
                0.0,
                -0.15673799812793733
            ],
            "min": [
                -0.15673799812793733,
                0.0,
                -0.9876399636268616
            ],
            "type": "VEC3"
        },
        {
            "bufferView": 1,
            "byteOffset": 624,
            "componentType": 5126,
            "count": 12,
            "max": [
                19.93549919128418,
                9.5,
                47.46200180053711
            ],
            "min": [
                -22.364898681640626,
                1.8261000350738855e-14,
                -66.6104965209961
            ],
            "type": "VEC3"
        },
        {
            "bufferView": 2,
            "byteOffset": 64,
            "componentType": 5126,
            "count": 12,
            "max": [
                1.0,
                1.0
            ],
            "min": [
                0.0,
                0.0
            ],
            "type": "VEC2"
        },
        {
            "bufferView": 0,
            "byteOffset": 126,
            "componentType": 5123,
            "count": 27,
            "max": [
                11
            ],
            "min": [
                0
            ],
            "type": "SCALAR"
        },
        {
            "bufferView": 1,
            "byteOffset": 768,
            "componentType": 5126,
            "count": 12,
            "max": [
                0.9876399636268616,
                0.0,
                0.15673799812793733
            ],
            "min": [
                -0.9876399636268616,
                0.0,
                -0.9876399636268616
            ],
            "type": "VEC3"
        },
        {
            "bufferView": 1,
            "byteOffset": 912,
            "componentType": 5126,
            "count": 12,
            "max": [
                5.750699996948242,
                14.0,
                -38.07939910888672
            ],
            "min": [
                -22.364898681640626,
                9.5,
                -66.6104965209961
            ],
            "type": "VEC3"
        },
        {
            "bufferView": 2,
            "byteOffset": 160,
            "componentType": 5126,
            "count": 12,
            "max": [
                1.0,
                1.0
            ],
            "min": [
                0.0,
                0.0
            ],
            "type": "VEC2"
        },
        {
            "bufferView": 0,
            "byteOffset": 180,
            "componentType": 5123,
            "count": 9,
            "max": [
                3
            ],
            "min": [
                0
            ],
            "type": "SCALAR"
        },
        {
            "bufferView": 1,
            "byteOffset": 1056,
            "componentType": 5126,
            "count": 4,
            "max": [
                0.15673799812793733,
                0.0,
                0.9876399636268616
            ],
            "min": [
                0.15673799812793733,
                0.0,
                0.9876399636268616
            ],
            "type": "VEC3"
        },
        {
            "bufferView": 1,
            "byteOffset": 1104,
            "componentType": 5126,
            "count": 4,
            "max": [
                5.750699996948242,
                14.0,
                -38.07939910888672
            ],
            "min": [
                -18.44649887084961,
                9.5,
                -41.91949462890625
            ],
            "type": "VEC3"
        },
        {
            "bufferView": 2,
            "byteOffset": 256,
            "componentType": 5126,
            "count": 4,
            "max": [
                1.0,
                1.0
            ],
            "min": [
                0.0,
                0.0
            ],
            "type": "VEC2"
        },
        {
            "bufferView": 0,
            "byteOffset": 198,
            "componentType": 5123,
            "count": 18,
            "max": [
                7
            ],
            "min": [
                0
            ],
            "type": "SCALAR"
        },
        {
            "bufferView": 1,
            "byteOffset": 1152,
            "componentType": 5126,
            "count": 8,
            "max": [
                0.9876399636268616,
                0.0,
                0.15673799812793733
            ],
            "min": [
                -0.9876399636268616,
                -4.743579851597542e-16,
                -0.15673799812793733
            ],
            "type": "VEC3"
        },
        {
            "bufferView": 1,
            "byteOffset": 1248,
            "componentType": 5126,
            "count": 8,
            "max": [
                22.364898681640626,
                19.0,
                66.6104965209961
            ],
            "min": [
                -4.261690139770508,
                5.464069612894606e-14,
                47.46200180053711
            ],
            "type": "VEC3"
        },
        {
            "bufferView": 2,
            "byteOffset": 288,
            "componentType": 5126,
            "count": 8,
            "max": [
                1.0,
                1.0
            ],
            "min": [
                0.0,
                0.0
            ],
            "type": "VEC2"
        },
        {
            "bufferView": 0,
            "byteOffset": 234,
            "componentType": 5123,
            "count": 18,
            "max": [
                7
            ],
            "min": [
                0
            ],
            "type": "SCALAR"
        },
        {
            "bufferView": 1,
            "byteOffset": 1344,
            "componentType": 5126,
            "count": 8,
            "max": [
                0.15673799812793733,
                1.7265599312498478e-16,
                0.9876399636268616
            ],
            "min": [
                -0.15673799812793733,
                -7.742550161583738e-17,
                -0.9876399636268616
            ],
            "type": "VEC3"
        },
        {
            "bufferView": 1,
            "byteOffset": 1440,
            "componentType": 5126,
            "count": 8,
            "max": [
                22.364898681640626,
                19.0,
                66.6104965209961
            ],
            "min": [
                -4.261690139770508,
                3.6450897367753396e-14,
                47.46200180053711
            ],
            "type": "VEC3"
        },
        {
            "bufferView": 2,
            "byteOffset": 352,
            "componentType": 5126,
            "count": 8,
            "max": [
                1.0,
                1.0
            ],
            "min": [
                0.0,
                0.0
            ],
            "type": "VEC2"
        }
    ],
    "materials": [
        {
            "pbrMetallicRoughness": {
                "baseColorFactor": [
                    0.49411800503730776,
                    0.49411800503730776,
                    0.49411800503730776,
                    1.0
                ],
                "metallicFactor": 0.0
            },
            "name": "ID34"
        },
        {
            "pbrMetallicRoughness": {
                "baseColorFactor": [
                    0.08627499639987946,
                    0.137254998087883,
                    0.1529410034418106,
                    1.0
                ],
                "metallicFactor": 0.0
            },
            "name": "ID17"
        },
        {
            "pbrMetallicRoughness": {
                "baseColorTexture": {
                    "index": 0
                },
                "metallicFactor": 0.0
            },
            "name": "ID29"
        },
        {
            "pbrMetallicRoughness": {
                "baseColorTexture": {
                    "index": 1
                },
                "metallicFactor": 0.0
            },
            "name": "ID24"
        },
        {
            "pbrMetallicRoughness": {
                "baseColorTexture": {
                    "index": 2
                },
                "metallicFactor": 0.0
            },
            "name": "ID19"
        },
        {
            "pbrMetallicRoughness": {
                "baseColorTexture": {
                    "index": 3
                },
                "metallicFactor": 0.0
            },
            "name": "ID12"
        },
        {
            "pbrMetallicRoughness": {
                "baseColorTexture": {
                    "index": 4
                },
                "metallicFactor": 0.0
            },
            "name": "ID7"
        },
        {
            "pbrMetallicRoughness": {
                "baseColorTexture": {
                    "index": 5
                },
                "metallicFactor": 0.0
            },
            "name": "ID2"
        }
    ],
    "textures": [
        {
            "sampler": 0,
            "source": 0
        },
        {
            "sampler": 0,
            "source": 1
        },
        {
            "sampler": 0,
            "source": 2
        },
        {
            "sampler": 0,
            "source": 2
        },
        {
            "sampler": 0,
            "source": 3
        },
        {
            "sampler": 0,
            "source": 4
        }
    ],
    "images": [
        {
            "uri": "data:image/jpeg;base64,"
        },
        {
            "uri": "data:image/jpeg;base64,"
        },
        {
            "uri": "data:image/jpeg;base64,"
        },
        {
            "uri": "data:image/jpeg;base64,"
        },
        {
            "uri": "data:image/jpeg;base64,"
        }
    ],
    "samplers": [
        {
            "magFilter": 9729,
            "minFilter": 9986,
            "wrapS": 10497,
            "wrapT": 10497
        }
    ],
    "bufferViews": [
        {
            "buffer": 0,
            "byteOffset": 1952,
            "byteLength": 270,
            "target": 34963
        },
        {
            "buffer": 0,
            "byteOffset": 0,
            "byteLength": 1536,
            "byteStride": 12,
            "target": 34962
        },
        {
            "buffer": 0,
            "byteOffset": 1536,
            "byteLength": 416,
            "byteStride": 8,
            "target": 34962
        }
    ],
    "buffers": [
        {
            "byteLength": 2222,
            "uri": "data:application/octet-stream;base64,"
        }
    ]
}
