{
    "asset": {
        "generator": "COLLADA2GLTF",
        "version": "2.0"
    },
    "scenes": [
        {
            "nodes": [
                0
            ]
        }
    ],
    "scene": 0,
    "nodes": [
        {
            "children": [
                1
            ],
            "name": "Y_UP"
        },
        {
            "children": [
                2
            ],
            "matrix": [
                -0.002510801889002323,
                0.9999966621398926,
                0.0006092559779062867,
                0.0,
                -0.999387800693512,
                -0.002530532656237483,
                0.03489422798156738,
                0.0,
                0.034895654767751697,
                -0.0005212705000303686,
                0.9993908405303956,
                0.0,
                -59.11279678344727,
                128.56298828125,
                -432.62799072265627,
                1.0
            ],
            "name": "Neuffer-Bau"
        },
        {
            "mesh": 0,
            "matrix": [
                -0.0025523861404508354,
                0.9993876218795776,
                -0.034897830337286,
                0.0,
                0.999996542930603,
                0.002529523568227887,
                -0.0006992599810473621,
                0.0,
                -0.0006105568609200418,
                -0.03489949554204941,
                -0.9993906617164612,
                0.0,
                -128.44700622558598,
                -43.655799865722659,
                434.4940185546875,
                1.0
            ],
            "name": "Dach.1"
        }
    ],
    "meshes": [
        {
            "primitives": [
                {
                    "attributes": {
                        "NORMAL": 1,
                        "POSITION": 2
                    },
                    "indices": 0,
                    "mode": 4,
                    "material": 0
                },
                {
                    "attributes": {
                        "NORMAL": 4,
                        "POSITION": 5,
                        "TEXCOORD_0": 6
                    },
                    "indices": 3,
                    "mode": 4,
                    "material": 1
                },
                {
                    "attributes": {
                        "NORMAL": 8,
                        "POSITION": 9,
                        "TEXCOORD_0": 10
                    },
                    "indices": 7,
                    "mode": 4,
                    "material": 2
                },
                {
                    "attributes": {
                        "NORMAL": 12,
                        "POSITION": 13,
                        "TEXCOORD_0": 14
                    },
                    "indices": 11,
                    "mode": 4,
                    "material": 3
                },
                {
                    "attributes": {
                        "NORMAL": 16,
                        "POSITION": 17,
                        "TEXCOORD_0": 18
                    },
                    "indices": 15,
                    "mode": 4,
                    "material": 4
                },
                {
                    "attributes": {
                        "NORMAL": 20,
                        "POSITION": 21,
                        "TEXCOORD_0": 22
                    },
                    "indices": 19,
                    "mode": 4,
                    "material": 5
                },
                {
                    "attributes": {
                        "NORMAL": 24,
                        "POSITION": 25,
                        "TEXCOORD_0": 26
                    },
                    "indices": 23,
                    "mode": 4,
                    "material": 6
                },
                {
                    "attributes": {
                        "NORMAL": 28,
                        "POSITION": 29,
                        "TEXCOORD_0": 30
                    },
                    "indices": 27,
                    "mode": 4,
                    "material": 7
                }
            ],
            "name": "ID45"
        }
    ],
    "accessors": [
        {
            "bufferView": 0,
            "byteOffset": 0,
            "componentType": 5123,
            "count": 30,
            "max": [
                17
            ],
            "min": [
                0
            ],
            "type": "SCALAR"
        },
        {
            "bufferView": 1,
            "byteOffset": 0,
            "componentType": 5126,
            "count": 18,
            "max": [
                0.9993879795074464,
                0.9999960064888,
                0.050910498946905139
            ],
            "min": [
                -0.9993879795074464,
                -0.002526200143620372,
                -0.06464359909296036
            ],
            "type": "VEC3"
        },
        {
            "bufferView": 1,
            "byteOffset": 216,
            "componentType": 5126,
            "count": 18,
            "max": [
                18.62979888916016,
                13.09749984741211,
                11.828999519348145
            ],
            "min": [
                -18.62979888916016,
                12.59999942779541,
                -11.82129955291748
            ],
            "type": "VEC3"
        },
        {
            "bufferView": 0,
            "byteOffset": 60,
            "componentType": 5123,
            "count": 9,
            "max": [
                3
            ],
            "min": [
                0
            ],
            "type": "SCALAR"
        },
        {
            "bufferView": 1,
            "byteOffset": 432,
            "componentType": 5126,
            "count": 4,
            "max": [
                -0.119438998401165,
                0.00030545698245987296,
                -0.9928420186042786
            ],
            "min": [
                -0.119438998401165,
                0.00030545698245987296,
                -0.9928420186042786
            ],
            "type": "VEC3"
        },
        {
            "bufferView": 1,
            "byteOffset": 480,
            "componentType": 5126,
            "count": 4,
            "max": [
                -9.00808048248291,
                12.63179874420166,
                -5.641030311584473
            ],
            "min": [
                -18.62979888916016,
                0.007117699831724167,
                -6.802390098571777
            ],
            "type": "VEC3"
        },
        {
            "bufferView": 2,
            "byteOffset": 0,
            "componentType": 5126,
            "count": 4,
            "max": [
                1.0,
                1.0
            ],
            "min": [
                0.0,
                0.0
            ],
            "type": "VEC2"
        },
        {
            "bufferView": 0,
            "byteOffset": 78,
            "componentType": 5123,
            "count": 18,
            "max": [
                7
            ],
            "min": [
                0
            ],
            "type": "SCALAR"
        },
        {
            "bufferView": 1,
            "byteOffset": 528,
            "componentType": 5126,
            "count": 8,
            "max": [
                0.11830999702215196,
                0.00030796098872087896,
                0.9929739832878112
            ],
            "min": [
                -0.11844999343156816,
                -0.002107620006427169,
                -0.9929599761962892
            ],
            "type": "VEC3"
        },
        {
            "bufferView": 1,
            "byteOffset": 624,
            "componentType": 5126,
            "count": 8,
            "max": [
                18.62979888916016,
                12.70099925994873,
                7.906350135803223
            ],
            "min": [
                -9.104870796203614,
                0.024165699258446698,
                -11.828999519348145
            ],
            "type": "VEC3"
        },
        {
            "bufferView": 2,
            "byteOffset": 32,
            "componentType": 5126,
            "count": 8,
            "max": [
                1.0,
                1.0
            ],
            "min": [
                0.0,
                0.0
            ],
            "type": "VEC2"
        },
        {
            "bufferView": 0,
            "byteOffset": 114,
            "componentType": 5123,
            "count": 9,
            "max": [
                3
            ],
            "min": [
                0
            ],
            "type": "SCALAR"
        },
        {
            "bufferView": 1,
            "byteOffset": 720,
            "componentType": 5126,
            "count": 4,
            "max": [
                0.09989730268716812,
                -0.00035571298212744296,
                0.9949979782104492
            ],
            "min": [
                0.09989730268716812,
                -0.00035571298212744296,
                0.9949979782104492
            ],
            "type": "VEC3"
        },
        {
            "bufferView": 1,
            "byteOffset": 768,
            "componentType": 5126,
            "count": 4,
            "max": [
                -8.388640403747559,
                12.622499465942385,
                11.828999519348145
            ],
            "min": [
                -17.219799041748048,
                1.8227398553721277e-14,
                10.937800407409668
            ],
            "type": "VEC3"
        },
        {
            "bufferView": 2,
            "byteOffset": 96,
            "componentType": 5126,
            "count": 4,
            "max": [
                1.0,
                1.0
            ],
            "min": [
                0.0,
                0.0
            ],
            "type": "VEC2"
        },
        {
            "bufferView": 0,
            "byteOffset": 132,
            "componentType": 5123,
            "count": 9,
            "max": [
                3
            ],
            "min": [
                0
            ],
            "type": "SCALAR"
        },
        {
            "bufferView": 1,
            "byteOffset": 816,
            "componentType": 5126,
            "count": 4,
            "max": [
                0.9993879795074464,
                0.0025251898914575578,
                -0.034894201904535297
            ],
            "min": [
                0.9993879795074464,
                0.0025251898914575578,
                -0.034894201904535297
            ],
            "type": "VEC3"
        },
        {
            "bufferView": 1,
            "byteOffset": 864,
            "componentType": 5126,
            "count": 4,
            "max": [
                -8.388640403747559,
                12.624098777770996,
                10.945499420166016
            ],
            "min": [
                -8.52632999420166,
                0.022575199604034425,
                7.888580322265625
            ],
            "type": "VEC3"
        },
        {
            "bufferView": 2,
            "byteOffset": 128,
            "componentType": 5126,
            "count": 4,
            "max": [
                1.0,
                1.0
            ],
            "min": [
                0.0,
                0.0
            ],
            "type": "VEC2"
        },
        {
            "bufferView": 0,
            "byteOffset": 150,
            "componentType": 5123,
            "count": 9,
            "max": [
                3
            ],
            "min": [
                0
            ],
            "type": "SCALAR"
        },
        {
            "bufferView": 1,
            "byteOffset": 912,
            "componentType": 5126,
            "count": 4,
            "max": [
                -0.9993879795074464,
                -0.0025251898914575578,
                0.034894201904535297
            ],
            "min": [
                -0.9993879795074464,
                -0.0025251898914575578,
                0.034894201904535297
            ],
            "type": "VEC3"
        },
        {
            "bufferView": 1,
            "byteOffset": 960,
            "componentType": 5126,
            "count": 4,
            "max": [
                -9.00808048248291,
                12.632800102233889,
                -6.79472017288208
            ],
            "min": [
                -9.104870796203614,
                0.031828299164772037,
                -8.670310020446778
            ],
            "type": "VEC3"
        },
        {
            "bufferView": 2,
            "byteOffset": 160,
            "componentType": 5126,
            "count": 4,
            "max": [
                1.0,
                1.0
            ],
            "min": [
                0.0,
                0.0
            ],
            "type": "VEC2"
        },
        {
            "bufferView": 0,
            "byteOffset": 168,
            "componentType": 5123,
            "count": 12,
            "max": [
                4
            ],
            "min": [
                0
            ],
            "type": "SCALAR"
        },
        {
            "bufferView": 1,
            "byteOffset": 1008,
            "componentType": 5126,
            "count": 5,
            "max": [
                -0.996715009212494,
                -0.002545939991250634,
                0.0809468999505043
            ],
            "min": [
                -0.9968309998512268,
                -0.002766829915344715,
                0.07950810343027115
            ],
            "type": "VEC3"
        },
        {
            "bufferView": 1,
            "byteOffset": 1068,
            "componentType": 5126,
            "count": 5,
            "max": [
                -17.188199996948247,
                13.004599571228028,
                11.828999519348145
            ],
            "min": [
                -18.62979888916016,
                1.8227398553721277e-14,
                -5.648699760437012
            ],
            "type": "VEC3"
        },
        {
            "bufferView": 2,
            "byteOffset": 192,
            "componentType": 5126,
            "count": 5,
            "max": [
                1.0,
                1.0
            ],
            "min": [
                0.0,
                0.0
            ],
            "type": "VEC2"
        },
        {
            "bufferView": 0,
            "byteOffset": 192,
            "componentType": 5123,
            "count": 12,
            "max": [
                4
            ],
            "min": [
                0
            ],
            "type": "SCALAR"
        },
        {
            "bufferView": 1,
            "byteOffset": 1128,
            "componentType": 5126,
            "count": 5,
            "max": [
                0.997514009475708,
                0.002546639880165458,
                -0.07043799757957459
            ],
            "min": [
                0.9967100024223328,
                -0.0027190500404685737,
                -0.08100520074367523
            ],
            "type": "VEC3"
        },
        {
            "bufferView": 1,
            "byteOffset": 1188,
            "componentType": 5126,
            "count": 5,
            "max": [
                18.62979888916016,
                13.09749984741211,
                4.683609962463379
            ],
            "min": [
                17.37419891357422,
                0.09399569034576416,
                -11.828999519348145
            ],
            "type": "VEC3"
        },
        {
            "bufferView": 2,
            "byteOffset": 232,
            "componentType": 5126,
            "count": 5,
            "max": [
                1.0,
                1.0
            ],
            "min": [
                0.0,
                0.0
            ],
            "type": "VEC2"
        }
    ],
    "materials": [
        {
            "pbrMetallicRoughness": {
                "baseColorFactor": [
                    0.2282350063323975,
                    0.2282350063323975,
                    0.2282350063323975,
                    1.0
                ],
                "metallicFactor": 0.0
            },
            "name": "ID31"
        },
        {
            "pbrMetallicRoughness": {
                "baseColorTexture": {
                    "index": 0
                },
                "metallicFactor": 0.0
            },
            "name": "ID11"
        },
        {
            "pbrMetallicRoughness": {
                "baseColorTexture": {
                    "index": 1
                },
                "metallicFactor": 0.0
            },
            "name": "ID16"
        },
        {
            "pbrMetallicRoughness": {
                "baseColorTexture": {
                    "index": 2
                },
                "metallicFactor": 0.0
            },
            "name": "ID26"
        },
        {
            "pbrMetallicRoughness": {
                "baseColorTexture": {
                    "index": 3
                },
                "metallicFactor": 0.0
            },
            "name": "ID33"
        },
        {
            "pbrMetallicRoughness": {
                "baseColorTexture": {
                    "index": 4
                },
                "metallicFactor": 0.0
            },
            "name": "ID38"
        },
        {
            "pbrMetallicRoughness": {
                "baseColorTexture": {
                    "index": 5
                },
                "metallicFactor": 0.0
            },
            "name": "ID6"
        },
        {
            "pbrMetallicRoughness": {
                "baseColorTexture": {
                    "index": 6
                },
                "metallicFactor": 0.0
            },
            "name": "ID21"
        }
    ],
    "textures": [
        {
            "sampler": 0,
            "source": 0
        },
        {
            "sampler": 0,
            "source": 1
        },
        {
            "sampler": 0,
            "source": 2
        },
        {
            "sampler": 0,
            "source": 3
        },
        {
            "sampler": 0,
            "source": 4
        },
        {
            "sampler": 0,
            "source": 5
        },
        {
            "sampler": 0,
            "source": 6
        }
    ],
    "images": [
        {
            "uri": "data:image/png;base64,"
        },
        {
            "uri": "data:image/png;base64,"
        },
        {
            "uri": "data:image/png;base64,"
        },
        {
            "uri": "data:image/png;base64,"
        },
        {
            "uri": "data:image/png;base64,"
        },
        {
            "uri": "data:image/png;base64,"
        },
        {
            "uri": "data:image/png;base64,"
        }
    ],
    "samplers": [
        {
            "magFilter": 9729,
            "minFilter": 9986,
            "wrapS": 10497,
            "wrapT": 10497
        }
    ],
    "bufferViews": [
        {
            "buffer": 0,
            "byteOffset": 1520,
            "byteLength": 216,
            "target": 34963
        },
        {
            "buffer": 0,
            "byteOffset": 0,
            "byteLength": 1248,
            "byteStride": 12,
            "target": 34962
        },
        {
            "buffer": 0,
            "byteOffset": 1248,
            "byteLength": 272,
            "byteStride": 8,
            "target": 34962
        }
    ],
    "buffers": [
        {
            "byteLength": 1736,
            "uri": "data:application/octet-stream;base64,"
        }
    ]
}
