{
    "asset": {
        "generator": "COLLADA2GLTF",
        "version": "2.0"
    },
    "scenes": [
        {
            "nodes": [
                0
            ]
        }
    ],
    "scene": 0,
    "nodes": [
        {
            "children": [
                1
            ],
            "name": "Y_UP"
        },
        {
            "children": [
                2
            ],
            "matrix": [
                -1.3466930348648987e-10,
                1.0,
                2.350661332251036e-12,
                0.0,
                -0.9998477101325988,
                -1.3468981485686982e-10,
                0.017452405765652658,
                0.0,
                0.017452405765652658,
                0.0,
                0.9998477101325988,
                0.0,
                149.2480010986328,
                154.1540069580078,
                -40.82839584350586,
                1.0
            ],
            "name": "VVT-Halle"
        },
        {
            "mesh": 0,
            "matrix": [
                1.3625692241170385e-10,
                0.9998477101325988,
                -0.017452405765652658,
                0.0,
                1.0,
                -1.3466930348648987e-10,
                9.214384810718456e-11,
                0.0,
                8.977951021504893e-11,
                -0.017452405765652658,
                -0.9998477101325988,
                0.0,
                -154.1540069580078,
                149.93798828125,
                38.21749877929688,
                1.0
            ],
            "name": "Dach.1"
        }
    ],
    "meshes": [
        {
            "primitives": [
                {
                    "attributes": {
                        "NORMAL": 1,
                        "POSITION": 2
                    },
                    "indices": 0,
                    "mode": 4,
                    "material": 0
                },
                {
                    "attributes": {
                        "NORMAL": 4,
                        "POSITION": 5,
                        "TEXCOORD_0": 6
                    },
                    "indices": 3,
                    "mode": 4,
                    "material": 1
                },
                {
                    "attributes": {
                        "NORMAL": 8,
                        "POSITION": 9,
                        "TEXCOORD_0": 10
                    },
                    "indices": 7,
                    "mode": 4,
                    "material": 2
                },
                {
                    "attributes": {
                        "NORMAL": 12,
                        "POSITION": 13,
                        "TEXCOORD_0": 14
                    },
                    "indices": 11,
                    "mode": 4,
                    "material": 3
                },
                {
                    "attributes": {
                        "NORMAL": 16,
                        "POSITION": 17,
                        "TEXCOORD_0": 18
                    },
                    "indices": 15,
                    "mode": 4,
                    "material": 4
                }
            ],
            "name": "ID26"
        }
    ],
    "accessors": [
        {
            "bufferView": 0,
            "byteOffset": 0,
            "componentType": 5123,
            "count": 12,
            "max": [
                5
            ],
            "min": [
                0
            ],
            "type": "SCALAR"
        },
        {
            "bufferView": 1,
            "byteOffset": 0,
            "componentType": 5126,
            "count": 6,
            "max": [
                0.11139900237321854,
                0.9993799924850464,
                0.01853889971971512
            ],
            "min": [
                -0.1168930009007454,
                0.9929720163345336,
                -0.017973801121115686
            ],
            "type": "VEC3"
        },
        {
            "bufferView": 1,
            "byteOffset": 72,
            "componentType": 5126,
            "count": 6,
            "max": [
                13.693499565124512,
                10.59999942779541,
                23.758296966552736
            ],
            "min": [
                -13.693399429321288,
                9.39999008178711,
                -23.758296966552736
            ],
            "type": "VEC3"
        },
        {
            "bufferView": 0,
            "byteOffset": 24,
            "componentType": 5123,
            "count": 12,
            "max": [
                4
            ],
            "min": [
                0
            ],
            "type": "SCALAR"
        },
        {
            "bufferView": 1,
            "byteOffset": 144,
            "componentType": 5126,
            "count": 5,
            "max": [
                0.15582099556922913,
                0.16055800020694734,
                0.9877849817276
            ],
            "min": [
                0.15379999577999116,
                -4.6362700345525819e-8,
                0.9749699831008912
            ],
            "type": "VEC3"
        },
        {
            "bufferView": 1,
            "byteOffset": 204,
            "componentType": 5126,
            "count": 5,
            "max": [
                13.693499565124512,
                10.59999942779541,
                23.758296966552736
            ],
            "min": [
                -6.818180561065674,
                -1.136869939991948e-15,
                20.5226993560791
            ],
            "type": "VEC3"
        },
        {
            "bufferView": 2,
            "byteOffset": 0,
            "componentType": 5126,
            "count": 5,
            "max": [
                1.0,
                1.0
            ],
            "min": [
                0.0,
                0.0
            ],
            "type": "VEC2"
        },
        {
            "bufferView": 0,
            "byteOffset": 48,
            "componentType": 5123,
            "count": 12,
            "max": [
                4
            ],
            "min": [
                0
            ],
            "type": "SCALAR"
        },
        {
            "bufferView": 1,
            "byteOffset": 264,
            "componentType": 5126,
            "count": 5,
            "max": [
                -0.1373160034418106,
                8.592629541226415e-8,
                -0.990011990070343
            ],
            "min": [
                -0.1373859941959381,
                -0.031954798847436908,
                -0.9905179738998412
            ],
            "type": "VEC3"
        },
        {
            "bufferView": 1,
            "byteOffset": 324,
            "componentType": 5126,
            "count": 5,
            "max": [
                6.631869792938232,
                10.59999942779541,
                -20.939199447631837
            ],
            "min": [
                -13.693499565124512,
                0.0000020547900021483658,
                -23.758296966552736
            ],
            "type": "VEC3"
        },
        {
            "bufferView": 2,
            "byteOffset": 40,
            "componentType": 5126,
            "count": 5,
            "max": [
                1.0,
                1.0
            ],
            "min": [
                0.0,
                0.0
            ],
            "type": "VEC2"
        },
        {
            "bufferView": 0,
            "byteOffset": 72,
            "componentType": 5123,
            "count": 9,
            "max": [
                3
            ],
            "min": [
                0
            ],
            "type": "SCALAR"
        },
        {
            "bufferView": 1,
            "byteOffset": 384,
            "componentType": 5126,
            "count": 4,
            "max": [
                0.9875220060348512,
                -3.235659846723138e-7,
                -0.15748199820518497
            ],
            "min": [
                0.9875220060348512,
                -3.235659846723138e-7,
                -0.15748199820518497
            ],
            "type": "VEC3"
        },
        {
            "bufferView": 1,
            "byteOffset": 432,
            "componentType": 5126,
            "count": 4,
            "max": [
                13.693499565124512,
                9.39999008178711,
                20.5226993560791
            ],
            "min": [
                6.631869792938232,
                -1.136869939991948e-15,
                -23.758296966552736
            ],
            "type": "VEC3"
        },
        {
            "bufferView": 2,
            "byteOffset": 80,
            "componentType": 5126,
            "count": 4,
            "max": [
                1.0,
                1.0
            ],
            "min": [
                0.0,
                0.0
            ],
            "type": "VEC2"
        },
        {
            "bufferView": 0,
            "byteOffset": 90,
            "componentType": 5123,
            "count": 9,
            "max": [
                3
            ],
            "min": [
                0
            ],
            "type": "SCALAR"
        },
        {
            "bufferView": 1,
            "byteOffset": 480,
            "componentType": 5126,
            "count": 4,
            "max": [
                -0.9883760213851928,
                5.346399802874657e-7,
                0.15202999114990238
            ],
            "min": [
                -0.9883760213851928,
                5.346399802874657e-7,
                0.15202999114990238
            ],
            "type": "VEC3"
        },
        {
            "bufferView": 1,
            "byteOffset": 528,
            "componentType": 5126,
            "count": 4,
            "max": [
                -6.818180561065674,
                9.400010108947754,
                23.758296966552736
            ],
            "min": [
                -13.693499565124512,
                0.000016720499843358998,
                -20.939199447631837
            ],
            "type": "VEC3"
        },
        {
            "bufferView": 2,
            "byteOffset": 112,
            "componentType": 5126,
            "count": 4,
            "max": [
                1.0,
                1.0
            ],
            "min": [
                0.0,
                0.0
            ],
            "type": "VEC2"
        }
    ],
    "materials": [
        {
            "pbrMetallicRoughness": {
                "baseColorFactor": [
                    0.21176500618457798,
                    0.21176500618457798,
                    0.21960799396038056,
                    1.0
                ],
                "metallicFactor": 0.0
            },
            "name": "ID22"
        },
        {
            "pbrMetallicRoughness": {
                "baseColorTexture": {
                    "index": 0
                },
                "metallicFactor": 0.0
            },
            "name": "ID17"
        },
        {
            "pbrMetallicRoughness": {
                "baseColorTexture": {
                    "index": 1
                },
                "metallicFactor": 0.0
            },
            "name": "ID12"
        },
        {
            "pbrMetallicRoughness": {
                "baseColorTexture": {
                    "index": 2
                },
                "metallicFactor": 0.0
            },
            "name": "ID7"
        },
        {
            "pbrMetallicRoughness": {
                "baseColorTexture": {
                    "index": 3
                },
                "metallicFactor": 0.0
            },
            "name": "ID2"
        }
    ],
    "textures": [
        {
            "sampler": 0,
            "source": 0
        },
        {
            "sampler": 0,
            "source": 1
        },
        {
            "sampler": 0,
            "source": 2
        },
        {
            "sampler": 0,
            "source": 2
        }
    ],
    "images": [
        {
            "uri": "data:image/jpeg;base64,"
        },
        {
            "uri": "data:image/jpeg;base64,"
        },
        {
            "uri": "data:image/jpeg;base64,"
        }
    ],
    "samplers": [
        {
            "magFilter": 9729,
            "minFilter": 9986,
            "wrapS": 10497,
            "wrapT": 10497
        }
    ],
    "bufferViews": [
        {
            "buffer": 0,
            "byteOffset": 720,
            "byteLength": 108,
            "target": 34963
        },
        {
            "buffer": 0,
            "byteOffset": 0,
            "byteLength": 576,
            "byteStride": 12,
            "target": 34962
        },
        {
            "buffer": 0,
            "byteOffset": 576,
            "byteLength": 144,
            "byteStride": 8,
            "target": 34962
        }
    ],
    "buffers": [
        {
            "byteLength": 828,
            "uri": "data:application/octet-stream;base64,"
        }
    ]
}
