{
    "asset": {
        "generator": "COLLADA2GLTF",
        "version": "2.0"
    },
    "scenes": [
        {
            "nodes": [
                0
            ]
        }
    ],
    "scene": 0,
    "nodes": [
        {
            "children": [
                1
            ],
            "name": "Y_UP"
        },
        {
            "children": [
                6,
                5,
                4,
                3,
                2
            ],
            "matrix": [
                1.0,
                0.0,
                0.0,
                0.0,
                0.0,
                1.0,
                0.0,
                0.0,
                0.0,
                0.0,
                1.0,
                0.0,
                0.0,
                0.022510001435875897,
                0.0,
                1.0
            ],
            "name": "streetlamp1.obj"
        },
        {
            "mesh": 0,
            "name": "Cylinder_Cylinder.003"
        },
        {
            "mesh": 1,
            "name": "Circle.001"
        },
        {
            "mesh": 2,
            "name": "Tube"
        },
        {
            "mesh": 3,
            "name": "Cube"
        },
        {
            "mesh": 4,
            "name": "Circle_Circle.003"
        }
    ],
    "meshes": [
        {
            "primitives": [
                {
                    "attributes": {
                        "NORMAL": 1,
                        "POSITION": 2
                    },
                    "indices": 0,
                    "mode": 4,
                    "material": 0
                }
            ],
            "name": "ID50"
        },
        {
            "primitives": [
                {
                    "attributes": {
                        "NORMAL": 4,
                        "POSITION": 5
                    },
                    "indices": 3,
                    "mode": 4,
                    "material": 1
                }
            ],
            "name": "ID41"
        },
        {
            "primitives": [
                {
                    "attributes": {
                        "NORMAL": 7,
                        "POSITION": 8
                    },
                    "indices": 6,
                    "mode": 4,
                    "material": 2
                }
            ],
            "name": "ID32"
        },
        {
            "primitives": [
                {
                    "attributes": {
                        "NORMAL": 10,
                        "POSITION": 11
                    },
                    "indices": 9,
                    "mode": 4,
                    "material": 3
                }
            ],
            "name": "ID23"
        },
        {
            "primitives": [
                {
                    "attributes": {
                        "NORMAL": 13,
                        "POSITION": 14
                    },
                    "indices": 12,
                    "mode": 4,
                    "material": 4
                }
            ],
            "name": "ID14"
        }
    ],
    "accessors": [
        {
            "bufferView": 0,
            "byteOffset": 0,
            "componentType": 5123,
            "count": 120,
            "max": [
                49
            ],
            "min": [
                0
            ],
            "type": "SCALAR"
        },
        {
            "bufferView": 1,
            "byteOffset": 0,
            "componentType": 5126,
            "count": 50,
            "max": [
                0.9237809777259828,
                1.0,
                0.9237809777259828
            ],
            "min": [
                -0.9237809777259828,
                -1.0,
                -0.9237809777259828
            ],
            "type": "VEC3"
        },
        {
            "bufferView": 1,
            "byteOffset": 600,
            "componentType": 5126,
            "count": 50,
            "max": [
                0.0012499999720603228,
                0.022499999031424524,
                0.0012499999720603228
            ],
            "min": [
                -0.0012499999720603228,
                -0.022499999031424524,
                -0.0012499999720603228
            ],
            "type": "VEC3"
        },
        {
            "bufferView": 0,
            "byteOffset": 240,
            "componentType": 5123,
            "count": 360,
            "max": [
                47
            ],
            "min": [
                0
            ],
            "type": "SCALAR"
        },
        {
            "bufferView": 1,
            "byteOffset": 1200,
            "componentType": 5126,
            "count": 48,
            "max": [
                0.9901559948921204,
                0.985530972480774,
                0.6836249828338623
            ],
            "min": [
                -0.9901559948921204,
                -0.985530972480774,
                -0.2175939977169037
            ],
            "type": "VEC3"
        },
        {
            "bufferView": 1,
            "byteOffset": 1776,
            "componentType": 5126,
            "count": 48,
            "max": [
                0.0020599099807441236,
                0.02660559862852097,
                0.00016696000238880515
            ],
            "min": [
                -0.002000009873881936,
                0.022532498463988305,
                -0.00027697000768966973
            ],
            "type": "VEC3"
        },
        {
            "bufferView": 0,
            "byteOffset": 960,
            "componentType": 5123,
            "count": 2304,
            "max": [
                639
            ],
            "min": [
                0
            ],
            "type": "SCALAR"
        },
        {
            "bufferView": 1,
            "byteOffset": 2352,
            "componentType": 5126,
            "count": 640,
            "max": [
                0.9987499713897704,
                0.0,
                0.9987499713897704
            ],
            "min": [
                -0.9987499713897704,
                0.0,
                -0.9987499713897704
            ],
            "type": "VEC3"
        },
        {
            "bufferView": 1,
            "byteOffset": 10032,
            "componentType": 5126,
            "count": 640,
            "max": [
                0.0034444299526512624,
                0.026560399681329728,
                0.0033621499314904219
            ],
            "min": [
                -0.0033890597987920048,
                0.023692099377512933,
                -0.0034713398199528457
            ],
            "type": "VEC3"
        },
        {
            "bufferView": 0,
            "byteOffset": 5568,
            "componentType": 5123,
            "count": 936,
            "max": [
                385
            ],
            "min": [
                0
            ],
            "type": "SCALAR"
        },
        {
            "bufferView": 1,
            "byteOffset": 17712,
            "componentType": 5126,
            "count": 386,
            "max": [
                0.9999690055847168,
                0.9832189679145812,
                0.9831870198249816
            ],
            "min": [
                -0.9999690055847168,
                -0.9832189679145812,
                -0.9831870198249816
            ],
            "type": "VEC3"
        },
        {
            "bufferView": 1,
            "byteOffset": 22344,
            "componentType": 5126,
            "count": 386,
            "max": [
                0.0010646400041878224,
                0.02567940019071102,
                0.0007563999970443547
            ],
            "min": [
                -0.0021627501118928196,
                0.0239959005266428,
                -0.0009270799928344786
            ],
            "type": "VEC3"
        },
        {
            "bufferView": 2,
            "byteOffset": 0,
            "componentType": 5125,
            "count": 184320,
            "max": [
                81137
            ],
            "min": [
                0
            ],
            "type": "SCALAR"
        },
        {
            "bufferView": 1,
            "byteOffset": 26976,
            "componentType": 5126,
            "count": 81138,
            "max": [
                0.9269689917564392,
                0.9997190237045288,
                0.9986249804496764
            ],
            "min": [
                -0.9986559748649596,
                -1.0,
                -0.9986249804496764
            ],
            "type": "VEC3"
        },
        {
            "bufferView": 1,
            "byteOffset": 1000632,
            "componentType": 5126,
            "count": 81138,
            "max": [
                0.004437919706106186,
                0.0278346985578537,
                0.004384269937872887
            ],
            "min": [
                -0.00460683973506093,
                0.025808097794651986,
                -0.004442370031028986
            ],
            "type": "VEC3"
        }
    ],
    "materials": [
        {
            "pbrMetallicRoughness": {
                "baseColorFactor": [
                    0.800000011920929,
                    0.7199999690055847,
                    0.6399999856948853,
                    1.0
                ],
                "metallicFactor": 0.0
            },
            "name": "ID4"
        },
        {
            "pbrMetallicRoughness": {
                "baseColorFactor": [
                    0.1599999964237213,
                    0.1599999964237213,
                    0.20000000298023225,
                    1.0
                ],
                "metallicFactor": 0.0
            },
            "name": "ID2"
        },
        {
            "pbrMetallicRoughness": {
                "baseColorFactor": [
                    0.6399999856948853,
                    0.6399999856948853,
                    0.800000011920929,
                    1.0
                ],
                "metallicFactor": 0.0
            },
            "name": "ID6"
        },
        {
            "pbrMetallicRoughness": {
                "baseColorFactor": [
                    0.0,
                    0.0,
                    0.0,
                    0.0
                ],
                "metallicFactor": 0.0
            },
            "alphaMode": "BLEND",
            "name": "ID8"
        },
        {
            "pbrMetallicRoughness": {
                "baseColorFactor": [
                    0.7199999690055847,
                    0.7199999690055847,
                    0.7199999690055847,
                    1.0
                ],
                "metallicFactor": 0.0
            },
            "name": "ID10"
        }
    ],
    "bufferViews": [
        {
            "buffer": 0,
            "byteOffset": 2711568,
            "byteLength": 7440,
            "target": 34963
        },
        {
            "buffer": 0,
            "byteOffset": 0,
            "byteLength": 1974288,
            "byteStride": 12,
            "target": 34962
        },
        {
            "buffer": 0,
            "byteOffset": 1974288,
            "byteLength": 737280,
            "target": 34963
        }
    ],
    "buffers": [
        {
            "byteLength": 2719008,
            "uri": "data:application/octet-stream;base64,"
        }
    ]
}
