{
    "asset": {
        "generator": "COLLADA2GLTF",
        "version": "2.0"
    },
    "scenes": [
        {
            "nodes": [
                0
            ]
        }
    ],
    "scene": 0,
    "nodes": [
        {
            "children": [
                2,
                1
            ],
            "name": "Y_UP"
        },
        {
            "mesh": 0,
            "matrix": [
                1.0,
                0.0,
                0.0,
                0.0,
                0.0,
                1.0,
                0.0,
                0.0,
                0.0,
                0.0,
                1.0,
                0.0,
                -0.002532139886170626,
                0.004412899725139141,
                0.00031731900526210666,
                1.0
            ],
            "name": "Sweep.1"
        },
        {
            "mesh": 1,
            "matrix": [
                1.0,
                0.0,
                0.0,
                0.0,
                0.0,
                1.0,
                0.0,
                0.0,
                0.0,
                0.0,
                1.0,
                0.0,
                0.0,
                2.354330062866211,
                0.0,
                1.0
            ],
            "name": "Sphere"
        }
    ],
    "meshes": [
        {
            "primitives": [
                {
                    "attributes": {
                        "NORMAL": 1,
                        "POSITION": 2
                    },
                    "indices": 0,
                    "mode": 4,
                    "material": 0
                }
            ],
            "name": "ID20"
        },
        {
            "primitives": [
                {
                    "attributes": {
                        "NORMAL": 4,
                        "POSITION": 5
                    },
                    "indices": 3,
                    "mode": 4,
                    "material": 1
                }
            ],
            "name": "ID7"
        }
    ],
    "accessors": [
        {
            "bufferView": 0,
            "byteOffset": 0,
            "componentType": 5123,
            "count": 1356,
            "max": [
                192
            ],
            "min": [
                0
            ],
            "type": "SCALAR"
        },
        {
            "bufferView": 1,
            "byteOffset": 0,
            "componentType": 5126,
            "count": 193,
            "max": [
                0.9989050030708312,
                1.0,
                0.99890798330307
            ],
            "min": [
                -0.9989099502563476,
                -1.0,
                -0.99890798330307
            ],
            "type": "VEC3"
        },
        {
            "bufferView": 1,
            "byteOffset": 2316,
            "componentType": 5126,
            "count": 193,
            "max": [
                0.07312499731779099,
                3.8921902179718019,
                0.07312499731779099
            ],
            "min": [
                -0.07312499731779099,
                0.0,
                -0.07312499731779099
            ],
            "type": "VEC3"
        },
        {
            "bufferView": 0,
            "byteOffset": 2712,
            "componentType": 5123,
            "count": 240,
            "max": [
                85
            ],
            "min": [
                0
            ],
            "type": "SCALAR"
        },
        {
            "bufferView": 1,
            "byteOffset": 4632,
            "componentType": 5126,
            "count": 86,
            "max": [
                0.970157027244568,
                0.8333839774131775,
                0.9615240097045898
            ],
            "min": [
                -0.9427229762077332,
                -0.9728779792785645,
                -0.9355289936065674
            ],
            "type": "VEC3"
        },
        {
            "bufferView": 1,
            "byteOffset": 5664,
            "componentType": 5126,
            "count": 86,
            "max": [
                0.9688859581947328,
                1.7820998430252076,
                1.1908299922943116
            ],
            "min": [
                -1.199099898338318,
                -1.864390015602112,
                -1.1106700897216797
            ],
            "type": "VEC3"
        }
    ],
    "materials": [
        {
            "pbrMetallicRoughness": {
                "baseColorFactor": [
                    0.512690007686615,
                    0.4489290118217468,
                    0.38516899943351748,
                    1.0
                ],
                "metallicFactor": 0.0
            },
            "name": "ID4"
        },
        {
            "pbrMetallicRoughness": {
                "baseColorFactor": [
                    0.14604100584983829,
                    0.3499999940395355,
                    0.1314720064401627,
                    1.0
                ],
                "metallicFactor": 0.0
            },
            "name": "ID2"
        }
    ],
    "bufferViews": [
        {
            "buffer": 0,
            "byteOffset": 6696,
            "byteLength": 3192,
            "target": 34963
        },
        {
            "buffer": 0,
            "byteOffset": 0,
            "byteLength": 6696,
            "byteStride": 12,
            "target": 34962
        }
    ],
    "buffers": [
        {
            "byteLength": 9888,
            "uri": "data:application/octet-stream;base64,"
        }
    ]
}
